<svg xmlns="http://www.w3.org/2000/svg" xmlns:xlink="http://www.w3.org/1999/xlink" width="500" zoomAndPan="magnify" viewBox="0 0 375 374.999991" height="500" preserveAspectRatio="xMidYMid meet" version="1.0"><defs><clipPath id="311cbeb394"><path d="M 0 307.40625 L 72.75 307.40625 L 72.75 374.90625 L 0 374.90625 Z M 0 307.40625 " clip-rule="nonzero"/></clipPath><clipPath id="e2e1f9e5fb"><path d="M 2 373 L 71 373 L 71 374.90625 L 2 374.90625 Z M 2 373 " clip-rule="nonzero"/></clipPath><clipPath id="290638963c"><path d="M 0 331 L 22 331 L 22 374.90625 L 0 374.90625 Z M 0 331 " clip-rule="nonzero"/></clipPath><clipPath id="6e8e4be876"><path d="M 10 322 L 30 322 L 30 374.90625 L 10 374.90625 Z M 10 322 " clip-rule="nonzero"/></clipPath><clipPath id="3c53ca4b5c"><path d="M 28 307.40625 L 66 307.40625 L 66 355 L 28 355 Z M 28 307.40625 " clip-rule="nonzero"/></clipPath><clipPath id="dd860d7b7e"><path d="M 37 353 L 40 353 L 40 374.90625 L 37 374.90625 Z M 37 353 " clip-rule="nonzero"/></clipPath><clipPath id="dbe6b733a7"><path d="M 51 318 L 72.75 318 L 72.75 355 L 51 355 Z M 51 318 " clip-rule="nonzero"/></clipPath><clipPath id="716721756e"><path d="M 46 353 L 53 353 L 53 374.90625 L 46 374.90625 Z M 46 353 " clip-rule="nonzero"/></clipPath><clipPath id="a5f662e141"><path d="M 55 334 L 72.75 334 L 72.75 374.90625 L 55 374.90625 Z M 55 334 " clip-rule="nonzero"/></clipPath><clipPath id="b6c3aad904"><path d="M 58 351 L 72 351 L 72 374.90625 L 58 374.90625 Z M 58 351 " clip-rule="nonzero"/></clipPath><clipPath id="e1ff20e76c"><path d="M 51.601562 307.40625 L 124.351562 307.40625 L 124.351562 374.90625 L 51.601562 374.90625 Z M 51.601562 307.40625 " clip-rule="nonzero"/></clipPath><clipPath id="bf06f787a0"><path d="M 53 373 L 123 373 L 123 374.90625 L 53 374.90625 Z M 53 373 " clip-rule="nonzero"/></clipPath><clipPath id="87f88ecf52"><path d="M 51.601562 331 L 73 331 L 73 374.90625 L 51.601562 374.90625 Z M 51.601562 331 " clip-rule="nonzero"/></clipPath><clipPath id="2ff2bbc7d2"><path d="M 62 322 L 81 322 L 81 374.90625 L 62 374.90625 Z M 62 322 " clip-rule="nonzero"/></clipPath><clipPath id="0ff229aaf3"><path d="M 79 307.40625 L 118 307.40625 L 118 355 L 79 355 Z M 79 307.40625 " clip-rule="nonzero"/></clipPath><clipPath id="d514d60812"><path d="M 89 353 L 92 353 L 92 374.90625 L 89 374.90625 Z M 89 353 " clip-rule="nonzero"/></clipPath><clipPath id="a532cde83e"><path d="M 103 318 L 124.351562 318 L 124.351562 355 L 103 355 Z M 103 318 " clip-rule="nonzero"/></clipPath><clipPath id="2f6e28f7b1"><path d="M 98 353 L 105 353 L 105 374.90625 L 98 374.90625 Z M 98 353 " clip-rule="nonzero"/></clipPath><clipPath id="304557dfaa"><path d="M 107 334 L 124.351562 334 L 124.351562 374.90625 L 107 374.90625 Z M 107 334 " clip-rule="nonzero"/></clipPath><clipPath id="a2186d9999"><path d="M 110 351 L 124 351 L 124 374.90625 L 110 374.90625 Z M 110 351 " clip-rule="nonzero"/></clipPath><clipPath id="d360ccd5b7"><path d="M 99.929688 307.40625 L 172.679688 307.40625 L 172.679688 374.90625 L 99.929688 374.90625 Z M 99.929688 307.40625 " clip-rule="nonzero"/></clipPath><clipPath id="4918257222"><path d="M 102 373 L 171 373 L 171 374.90625 L 102 374.90625 Z M 102 373 " clip-rule="nonzero"/></clipPath><clipPath id="250bf74c57"><path d="M 99.929688 331 L 122 331 L 122 374.90625 L 99.929688 374.90625 Z M 99.929688 331 " clip-rule="nonzero"/></clipPath><clipPath id="e777baec43"><path d="M 110 322 L 130 322 L 130 374.90625 L 110 374.90625 Z M 110 322 " clip-rule="nonzero"/></clipPath><clipPath id="3ea14f4e62"><path d="M 128 307.40625 L 166 307.40625 L 166 355 L 128 355 Z M 128 307.40625 " clip-rule="nonzero"/></clipPath><clipPath id="7eb59b0339"><path d="M 137 353 L 140 353 L 140 374.90625 L 137 374.90625 Z M 137 353 " clip-rule="nonzero"/></clipPath><clipPath id="bb5988b4e9"><path d="M 151 318 L 172.679688 318 L 172.679688 355 L 151 355 Z M 151 318 " clip-rule="nonzero"/></clipPath><clipPath id="8fb9346977"><path d="M 146 353 L 153 353 L 153 374.90625 L 146 374.90625 Z M 146 353 " clip-rule="nonzero"/></clipPath><clipPath id="df1f11d7fd"><path d="M 155 334 L 172.679688 334 L 172.679688 374.90625 L 155 374.90625 Z M 155 334 " clip-rule="nonzero"/></clipPath><clipPath id="8ff7ba78a5"><path d="M 158 351 L 172 351 L 172 374.90625 L 158 374.90625 Z M 158 351 " clip-rule="nonzero"/></clipPath><clipPath id="93f281fa9c"><path d="M 151.0625 307.40625 L 223.8125 307.40625 L 223.8125 374.90625 L 151.0625 374.90625 Z M 151.0625 307.40625 " clip-rule="nonzero"/></clipPath><clipPath id="5585d94caa"><path d="M 153 373 L 222 373 L 222 374.90625 L 153 374.90625 Z M 153 373 " clip-rule="nonzero"/></clipPath><clipPath id="365a91d9ab"><path d="M 151.0625 331 L 173 331 L 173 374.90625 L 151.0625 374.90625 Z M 151.0625 331 " clip-rule="nonzero"/></clipPath><clipPath id="ba8c41f1c1"><path d="M 161 322 L 181 322 L 181 374.90625 L 161 374.90625 Z M 161 322 " clip-rule="nonzero"/></clipPath><clipPath id="7bf1aa5125"><path d="M 179 307.40625 L 217 307.40625 L 217 355 L 179 355 Z M 179 307.40625 " clip-rule="nonzero"/></clipPath><clipPath id="2f6638e4ec"><path d="M 188 353 L 191 353 L 191 374.90625 L 188 374.90625 Z M 188 353 " clip-rule="nonzero"/></clipPath><clipPath id="ee4c9a6179"><path d="M 202 318 L 223.8125 318 L 223.8125 355 L 202 355 Z M 202 318 " clip-rule="nonzero"/></clipPath><clipPath id="c22ede79bd"><path d="M 197 353 L 204 353 L 204 374.90625 L 197 374.90625 Z M 197 353 " clip-rule="nonzero"/></clipPath><clipPath id="d8ced44dce"><path d="M 206 334 L 223.8125 334 L 223.8125 374.90625 L 206 374.90625 Z M 206 334 " clip-rule="nonzero"/></clipPath><clipPath id="32faba9c41"><path d="M 209 351 L 223 351 L 223 374.90625 L 209 374.90625 Z M 209 351 " clip-rule="nonzero"/></clipPath><clipPath id="339d16d022"><path d="M 199.808594 307.40625 L 272.558594 307.40625 L 272.558594 374.90625 L 199.808594 374.90625 Z M 199.808594 307.40625 " clip-rule="nonzero"/></clipPath><clipPath id="e83db17c17"><path d="M 202 373 L 271 373 L 271 374.90625 L 202 374.90625 Z M 202 373 " clip-rule="nonzero"/></clipPath><clipPath id="25928e1a27"><path d="M 199.808594 331 L 222 331 L 222 374.90625 L 199.808594 374.90625 Z M 199.808594 331 " clip-rule="nonzero"/></clipPath><clipPath id="0fe9f68654"><path d="M 210 322 L 229 322 L 229 374.90625 L 210 374.90625 Z M 210 322 " clip-rule="nonzero"/></clipPath><clipPath id="91791d66c0"><path d="M 228 307.40625 L 266 307.40625 L 266 355 L 228 355 Z M 228 307.40625 " clip-rule="nonzero"/></clipPath><clipPath id="475369151c"><path d="M 237 353 L 240 353 L 240 374.90625 L 237 374.90625 Z M 237 353 " clip-rule="nonzero"/></clipPath><clipPath id="dd0c2994a3"><path d="M 251 318 L 272.558594 318 L 272.558594 355 L 251 355 Z M 251 318 " clip-rule="nonzero"/></clipPath><clipPath id="07f2509baf"><path d="M 246 353 L 253 353 L 253 374.90625 L 246 374.90625 Z M 246 353 " clip-rule="nonzero"/></clipPath><clipPath id="f4c2c074ae"><path d="M 255 334 L 272.558594 334 L 272.558594 374.90625 L 255 374.90625 Z M 255 334 " clip-rule="nonzero"/></clipPath><clipPath id="5703a94c8e"><path d="M 258 351 L 272 351 L 272 374.90625 L 258 374.90625 Z M 258 351 " clip-rule="nonzero"/></clipPath><clipPath id="3ddfdd43b4"><path d="M 250.9375 307.40625 L 323.6875 307.40625 L 323.6875 374.90625 L 250.9375 374.90625 Z M 250.9375 307.40625 " clip-rule="nonzero"/></clipPath><clipPath id="4b54914d06"><path d="M 253 373 L 322 373 L 322 374.90625 L 253 374.90625 Z M 253 373 " clip-rule="nonzero"/></clipPath><clipPath id="cb96e7cba8"><path d="M 250.9375 331 L 273 331 L 273 374.90625 L 250.9375 374.90625 Z M 250.9375 331 " clip-rule="nonzero"/></clipPath><clipPath id="d4d1d33aeb"><path d="M 261 322 L 281 322 L 281 374.90625 L 261 374.90625 Z M 261 322 " clip-rule="nonzero"/></clipPath><clipPath id="a83ee2ab37"><path d="M 279 307.40625 L 317 307.40625 L 317 355 L 279 355 Z M 279 307.40625 " clip-rule="nonzero"/></clipPath><clipPath id="58142b7ab5"><path d="M 288 353 L 291 353 L 291 374.90625 L 288 374.90625 Z M 288 353 " clip-rule="nonzero"/></clipPath><clipPath id="411df58616"><path d="M 302 318 L 323.6875 318 L 323.6875 355 L 302 355 Z M 302 318 " clip-rule="nonzero"/></clipPath><clipPath id="ab9c52ea6b"><path d="M 297 353 L 304 353 L 304 374.90625 L 297 374.90625 Z M 297 353 " clip-rule="nonzero"/></clipPath><clipPath id="d78b1e6236"><path d="M 306 334 L 323.6875 334 L 323.6875 374.90625 L 306 374.90625 Z M 306 334 " clip-rule="nonzero"/></clipPath><clipPath id="be2760077c"><path d="M 309 351 L 323 351 L 323 374.90625 L 309 374.90625 Z M 309 351 " clip-rule="nonzero"/></clipPath><clipPath id="8bb87c3a28"><path d="M 302.070312 307.40625 L 374.820312 307.40625 L 374.820312 374.90625 L 302.070312 374.90625 Z M 302.070312 307.40625 " clip-rule="nonzero"/></clipPath><clipPath id="056cacd3fe"><path d="M 304 373 L 373 373 L 373 374.90625 L 304 374.90625 Z M 304 373 " clip-rule="nonzero"/></clipPath><clipPath id="1446a1e9c8"><path d="M 302.070312 331 L 324 331 L 324 374.90625 L 302.070312 374.90625 Z M 302.070312 331 " clip-rule="nonzero"/></clipPath><clipPath id="fad09546ec"><path d="M 312 322 L 332 322 L 332 374.90625 L 312 374.90625 Z M 312 322 " clip-rule="nonzero"/></clipPath><clipPath id="b42e05dcb6"><path d="M 330 307.40625 L 368 307.40625 L 368 355 L 330 355 Z M 330 307.40625 " clip-rule="nonzero"/></clipPath><clipPath id="7273b5274e"><path d="M 339 353 L 342 353 L 342 374.90625 L 339 374.90625 Z M 339 353 " clip-rule="nonzero"/></clipPath><clipPath id="a0774fea6f"><path d="M 353 318 L 374.820312 318 L 374.820312 355 L 353 355 Z M 353 318 " clip-rule="nonzero"/></clipPath><clipPath id="9c98a0bf30"><path d="M 348 353 L 355 353 L 355 374.90625 L 348 374.90625 Z M 348 353 " clip-rule="nonzero"/></clipPath><clipPath id="ee9778f37e"><path d="M 357 334 L 374.820312 334 L 374.820312 374.90625 L 357 374.90625 Z M 357 334 " clip-rule="nonzero"/></clipPath><clipPath id="5fcbc25b8a"><path d="M 360 351 L 374 351 L 374 374.90625 L 360 374.90625 Z M 360 351 " clip-rule="nonzero"/></clipPath></defs><g clip-path="url(#311cbeb394)"><path fill="#ffffff" d="M 61.996094 352.363281 C 61.152344 354.40625 60.394531 356.53125 59.71875 358.734375 C 63.636719 354.914062 67.402344 352.585938 71.019531 351.757812 C 71.230469 351.710938 71.445312 351.84375 71.492188 352.058594 C 71.519531 352.171875 71.492188 352.285156 71.429688 352.375 C 65.613281 361.355469 63.152344 368.5625 64.054688 373.992188 L 70.242188 373.980469 C 70.460938 373.980469 70.636719 374.15625 70.636719 374.375 C 70.636719 374.59375 70.460938 374.773438 70.242188 374.773438 L 63.75 374.785156 C 63.730469 374.785156 63.710938 374.785156 63.695312 374.785156 L 56.097656 374.800781 C 56.074219 374.800781 56.054688 374.800781 56.035156 374.800781 L 47.238281 374.816406 C 47.230469 374.816406 47.226562 374.816406 47.21875 374.816406 L 38.09375 374.835938 C 38.085938 374.835938 38.074219 374.835938 38.066406 374.835938 L 28.179688 374.855469 L 20.898438 374.871094 L 11.617188 374.886719 C 11.601562 374.890625 11.589844 374.890625 11.578125 374.890625 L 2.699219 374.90625 C 2.480469 374.90625 2.300781 374.730469 2.300781 374.511719 C 2.300781 374.292969 2.480469 374.113281 2.699219 374.113281 L 11.21875 374.097656 C 11.597656 365.558594 10.875 357.84375 9.046875 350.949219 C 7.195312 343.972656 4.210938 337.835938 0.09375 332.539062 C 0.00390625 332.425781 -0.0195312 332.269531 0.046875 332.128906 C 0.140625 331.929688 0.375 331.84375 0.574219 331.9375 C 7.523438 335.1875 12.722656 340.367188 16.179688 347.480469 C 17.074219 349.320312 17.851562 351.289062 18.511719 353.386719 C 17.847656 346.621094 16.953125 340.828125 15.828125 336.007812 C 14.464844 330.164062 12.765625 325.765625 10.730469 322.8125 C 10.640625 322.679688 10.632812 322.5 10.730469 322.363281 C 10.855469 322.179688 11.101562 322.136719 11.28125 322.257812 C 15.4375 325.117188 19.003906 329.226562 21.976562 334.582031 C 24.722656 339.53125 26.960938 345.542969 28.699219 352.621094 C 30.8125 343.152344 33.746094 334.738281 37.5 327.378906 C 41.484375 319.570312 46.394531 312.949219 52.226562 307.511719 C 52.386719 307.363281 52.640625 307.371094 52.789062 307.53125 C 52.90625 307.660156 52.925781 307.839844 52.851562 307.984375 C 48.441406 317.898438 45.136719 326.675781 42.945312 334.308594 C 41.085938 340.789062 40.03125 346.433594 39.777344 351.25 C 42.644531 343.472656 46.082031 336.921875 50.078125 331.597656 C 54.484375 325.730469 59.570312 321.351562 65.34375 318.460938 C 65.417969 318.425781 65.492188 318.414062 65.566406 318.421875 C 65.605469 318.425781 65.640625 318.4375 65.675781 318.449219 C 65.691406 318.457031 65.707031 318.464844 65.71875 318.472656 C 65.785156 318.507812 65.839844 318.566406 65.875 318.636719 C 65.910156 318.710938 65.921875 318.785156 65.914062 318.859375 C 65.910156 318.898438 65.902344 318.933594 65.886719 318.972656 C 65.878906 318.984375 65.871094 319 65.863281 319.011719 C 65.863281 319.015625 65.863281 319.019531 65.859375 319.019531 C 60.671875 328.019531 56.96875 335.457031 54.753906 341.332031 C 52.8125 346.480469 52.019531 350.398438 52.375 353.089844 C 55.003906 348.757812 57.90625 345.074219 61.078125 342.050781 C 64.460938 338.820312 68.152344 336.335938 72.15625 334.59375 C 72.300781 334.519531 72.480469 334.535156 72.609375 334.652344 C 72.773438 334.796875 72.785156 335.046875 72.636719 335.210938 C 68.238281 340.113281 64.691406 345.832031 61.996094 352.363281 Z M 61.996094 352.363281 " fill-opacity="1" fill-rule="evenodd"/></g><g clip-path="url(#e2e1f9e5fb)"><path fill="#000000" d="M 2.699219 374.90625 C 2.480469 374.90625 2.300781 374.730469 2.300781 374.511719 C 2.300781 374.292969 2.480469 374.113281 2.699219 374.113281 L 70.242188 373.980469 C 70.460938 373.980469 70.636719 374.15625 70.636719 374.375 C 70.636719 374.59375 70.460938 374.773438 70.242188 374.773438 Z M 2.699219 374.90625 " fill-opacity="1" fill-rule="nonzero"/></g><g clip-path="url(#290638963c)"><path fill="#000000" d="M 21.292969 374.472656 C 21.292969 374.691406 21.117188 374.871094 20.898438 374.871094 C 20.679688 374.871094 20.503906 374.691406 20.503906 374.472656 C 20.535156 363.683594 18.855469 354.804688 15.464844 347.828125 C 12.34375 341.402344 7.765625 336.589844 1.730469 333.398438 C 5.394531 338.460938 8.089844 344.246094 9.816406 350.75 C 11.691406 357.820312 12.414062 365.742188 11.992188 374.511719 C 11.980469 374.730469 11.796875 374.898438 11.578125 374.890625 C 11.359375 374.878906 11.1875 374.691406 11.199219 374.472656 C 11.621094 365.785156 10.902344 357.945312 9.046875 350.949219 C 7.195312 343.972656 4.210938 337.835938 0.09375 332.539062 C 0.00390625 332.425781 -0.0195312 332.269531 0.046875 332.128906 C 0.140625 331.929688 0.375 331.84375 0.574219 331.9375 C 7.523438 335.1875 12.722656 340.367188 16.179688 347.480469 C 19.621094 354.566406 21.328125 363.5625 21.292969 374.472656 Z M 21.292969 374.472656 " fill-opacity="1" fill-rule="nonzero"/></g><g clip-path="url(#6e8e4be876)"><path fill="#000000" d="M 28.574219 374.460938 C 28.574219 374.679688 28.398438 374.855469 28.179688 374.855469 C 27.960938 374.855469 27.78125 374.679688 27.78125 374.460938 C 27.789062 371.410156 27.839844 368.21875 27.929688 364.875 C 28.019531 361.539062 28.148438 358.0625 28.316406 354.453125 C 26.546875 346.722656 24.203125 340.226562 21.285156 334.96875 C 18.769531 330.441406 15.832031 326.828125 12.472656 324.132812 C 14.089844 327.054688 15.464844 330.953125 16.601562 335.828125 C 17.984375 341.742188 19.015625 349.101562 19.707031 357.914062 C 19.722656 358.132812 19.558594 358.324219 19.339844 358.339844 C 19.121094 358.355469 18.929688 358.191406 18.914062 357.972656 C 18.226562 349.203125 17.199219 341.882812 15.828125 336.007812 C 14.464844 330.164062 12.765625 325.765625 10.730469 322.8125 C 10.640625 322.679688 10.632812 322.5 10.730469 322.363281 C 10.855469 322.179688 11.101562 322.136719 11.28125 322.257812 C 15.4375 325.117188 19.003906 329.226562 21.976562 334.582031 C 24.9375 339.921875 27.316406 346.503906 29.105469 354.324219 C 29.113281 354.359375 29.113281 354.394531 29.113281 354.433594 C 28.941406 358.082031 28.808594 361.570312 28.722656 364.894531 C 28.632812 368.238281 28.582031 371.425781 28.574219 374.460938 Z M 28.574219 374.460938 " fill-opacity="1" fill-rule="nonzero"/></g><g clip-path="url(#3c53ca4b5c)"><path fill="#000000" d="M 29.105469 354.496094 C 29.0625 354.710938 28.851562 354.847656 28.636719 354.804688 C 28.421875 354.757812 28.285156 354.546875 28.328125 354.332031 C 30.464844 344.164062 33.523438 335.179688 37.5 327.378906 C 41.484375 319.570312 46.394531 312.949219 52.226562 307.511719 C 52.386719 307.363281 52.640625 307.371094 52.789062 307.53125 C 52.90625 307.660156 52.925781 307.839844 52.851562 307.984375 C 48.441406 317.898438 45.136719 326.675781 42.945312 334.308594 C 41.085938 340.789062 40.03125 346.433594 39.777344 351.25 C 42.644531 343.472656 46.082031 336.921875 50.078125 331.597656 C 54.484375 325.730469 59.570312 321.351562 65.34375 318.460938 C 65.539062 318.363281 65.777344 318.441406 65.875 318.636719 C 65.972656 318.832031 65.894531 319.070312 65.699219 319.167969 C 60.039062 322.003906 55.042969 326.304688 50.714844 332.070312 C 46.375 337.851562 42.699219 345.109375 39.695312 353.84375 L 39.695312 353.839844 C 39.640625 353.996094 39.496094 354.109375 39.320312 354.109375 C 39.101562 354.109375 38.925781 353.933594 38.925781 353.714844 C 38.890625 348.316406 39.976562 341.773438 42.183594 334.089844 C 44.246094 326.898438 47.292969 318.699219 51.324219 309.484375 C 46.191406 314.582031 41.820312 320.667969 38.210938 327.742188 C 34.261719 335.480469 31.226562 344.398438 29.105469 354.496094 Z M 29.105469 354.496094 " fill-opacity="1" fill-rule="nonzero"/></g><g clip-path="url(#dd860d7b7e)"><path fill="#000000" d="M 38.929688 353.644531 C 38.964844 353.429688 39.171875 353.285156 39.386719 353.320312 C 39.605469 353.359375 39.75 353.566406 39.710938 353.78125 C 39.019531 357.738281 38.570312 361.4375 38.363281 364.871094 C 38.160156 368.308594 38.195312 371.484375 38.476562 374.402344 C 38.496094 374.621094 38.335938 374.8125 38.117188 374.835938 C 37.898438 374.855469 37.707031 374.695312 37.683594 374.476562 C 37.402344 371.515625 37.363281 368.296875 37.574219 364.824219 C 37.78125 361.351562 38.234375 357.625 38.929688 353.644531 Z M 38.929688 353.644531 " fill-opacity="1" fill-rule="nonzero"/></g><g clip-path="url(#dbe6b733a7)"><path fill="#000000" d="M 65.179688 318.617188 C 65.289062 318.429688 65.53125 318.363281 65.71875 318.472656 C 65.910156 318.582031 65.972656 318.824219 65.863281 319.011719 C 60.671875 328.015625 56.96875 335.453125 54.753906 341.332031 C 52.8125 346.480469 52.019531 350.398438 52.375 353.089844 C 55.003906 348.757812 57.90625 345.074219 61.078125 342.050781 C 64.46875 338.8125 68.171875 336.324219 72.1875 334.582031 C 72.386719 334.496094 72.621094 334.589844 72.707031 334.789062 C 72.792969 334.988281 72.699219 335.222656 72.5 335.308594 C 68.574219 337.011719 64.949219 339.449219 61.625 342.625 C 58.289062 345.804688 55.257812 349.722656 52.53125 354.378906 C 52.480469 354.464844 52.398438 354.53125 52.292969 354.558594 C 52.082031 354.617188 51.863281 354.492188 51.804688 354.28125 C 51.023438 351.433594 51.757812 347.023438 54.011719 341.050781 C 56.238281 335.140625 59.960938 327.660156 65.179688 318.617188 Z M 65.179688 318.617188 " fill-opacity="1" fill-rule="nonzero"/></g><g clip-path="url(#716721756e)"><path fill="#000000" d="M 51.828125 354.011719 C 51.917969 353.8125 52.15625 353.726562 52.355469 353.816406 C 52.554688 353.910156 52.640625 354.144531 52.546875 354.34375 C 50.824219 358.0625 49.554688 361.59375 48.734375 364.9375 C 47.914062 368.28125 47.542969 371.4375 47.625 374.410156 C 47.628906 374.628906 47.457031 374.8125 47.238281 374.816406 C 47.019531 374.824219 46.835938 374.648438 46.832031 374.429688 C 46.75 371.386719 47.128906 368.160156 47.960938 364.753906 C 48.796875 361.351562 50.085938 357.769531 51.828125 354.011719 Z M 51.828125 354.011719 " fill-opacity="1" fill-rule="nonzero"/></g><g clip-path="url(#a5f662e141)"><path fill="#000000" d="M 72.046875 334.679688 C 72.195312 334.515625 72.445312 334.503906 72.609375 334.652344 C 72.773438 334.796875 72.785156 335.046875 72.636719 335.210938 C 68.238281 340.113281 64.691406 345.832031 61.996094 352.363281 C 59.296875 358.902344 57.453125 366.265625 56.457031 374.449219 C 56.433594 374.667969 56.234375 374.824219 56.015625 374.796875 C 55.800781 374.773438 55.644531 374.574219 55.667969 374.355469 C 56.671875 366.105469 58.535156 358.671875 61.261719 352.0625 C 63.996094 345.441406 67.589844 339.648438 72.046875 334.679688 Z M 72.046875 334.679688 " fill-opacity="1" fill-rule="nonzero"/></g><g clip-path="url(#b6c3aad904)"><path fill="#000000" d="M 59.175781 360.40625 C 59.023438 360.5625 58.773438 360.570312 58.613281 360.417969 C 58.457031 360.265625 58.453125 360.011719 58.605469 359.855469 C 62.925781 355.363281 67.0625 352.664062 71.019531 351.757812 C 71.230469 351.710938 71.445312 351.84375 71.492188 352.058594 C 71.519531 352.171875 71.492188 352.285156 71.429688 352.375 C 65.496094 361.535156 63.054688 368.847656 64.109375 374.3125 C 64.152344 374.527344 64.011719 374.738281 63.796875 374.777344 C 63.582031 374.820312 63.371094 374.679688 63.332031 374.464844 C 62.269531 368.964844 64.566406 361.742188 70.222656 352.792969 C 66.710938 353.863281 63.027344 356.402344 59.175781 360.40625 Z M 59.175781 360.40625 " fill-opacity="1" fill-rule="nonzero"/></g><g clip-path="url(#e1ff20e76c)"><path fill="#ffffff" d="M 113.597656 352.363281 C 112.753906 354.40625 111.996094 356.53125 111.320312 358.734375 C 115.238281 354.914062 119.003906 352.585938 122.621094 351.757812 C 122.835938 351.710938 123.046875 351.84375 123.097656 352.058594 C 123.121094 352.171875 123.097656 352.285156 123.03125 352.375 C 117.214844 361.355469 114.753906 368.5625 115.65625 373.992188 L 121.84375 373.980469 C 122.0625 373.980469 122.238281 374.15625 122.238281 374.375 C 122.238281 374.59375 122.0625 374.773438 121.84375 374.773438 L 115.351562 374.785156 C 115.332031 374.785156 115.3125 374.785156 115.296875 374.785156 L 107.699219 374.800781 C 107.675781 374.800781 107.65625 374.800781 107.636719 374.800781 L 98.839844 374.816406 C 98.832031 374.816406 98.828125 374.816406 98.820312 374.816406 L 89.695312 374.835938 C 89.6875 374.835938 89.679688 374.835938 89.667969 374.835938 L 79.78125 374.855469 L 72.5 374.871094 L 63.21875 374.886719 C 63.207031 374.890625 63.191406 374.890625 63.179688 374.890625 L 54.300781 374.90625 C 54.082031 374.90625 53.902344 374.730469 53.902344 374.511719 C 53.902344 374.292969 54.082031 374.113281 54.300781 374.113281 L 62.820312 374.097656 C 63.199219 365.558594 62.476562 357.84375 60.648438 350.949219 C 58.800781 343.972656 55.8125 337.835938 51.695312 332.539062 C 51.605469 332.425781 51.582031 332.269531 51.648438 332.128906 C 51.742188 331.929688 51.976562 331.84375 52.175781 331.9375 C 59.125 335.1875 64.328125 340.367188 67.78125 347.480469 C 68.675781 349.320312 69.453125 351.289062 70.113281 353.386719 C 69.449219 346.621094 68.554688 340.828125 67.429688 336.007812 C 66.066406 330.164062 64.367188 325.765625 62.332031 322.8125 C 62.242188 322.679688 62.238281 322.5 62.332031 322.363281 C 62.457031 322.179688 62.703125 322.136719 62.882812 322.257812 C 67.039062 325.117188 70.605469 329.226562 73.578125 334.582031 C 76.324219 339.53125 78.5625 345.542969 80.300781 352.621094 C 82.417969 343.152344 85.351562 334.738281 89.105469 327.378906 C 93.089844 319.570312 97.996094 312.949219 103.832031 307.511719 C 103.992188 307.363281 104.242188 307.371094 104.390625 307.53125 C 104.507812 307.660156 104.527344 307.839844 104.453125 307.984375 C 100.042969 317.898438 96.738281 326.675781 94.546875 334.308594 C 92.6875 340.789062 91.632812 346.433594 91.378906 351.25 C 94.246094 343.472656 97.683594 336.921875 101.683594 331.597656 C 106.085938 325.730469 111.175781 321.351562 116.945312 318.460938 C 117.019531 318.425781 117.09375 318.414062 117.167969 318.421875 C 117.207031 318.425781 117.242188 318.4375 117.277344 318.449219 C 117.292969 318.457031 117.308594 318.464844 117.320312 318.472656 C 117.386719 318.507812 117.441406 318.566406 117.476562 318.636719 C 117.515625 318.710938 117.527344 318.785156 117.515625 318.859375 C 117.511719 318.898438 117.503906 318.933594 117.488281 318.972656 C 117.480469 318.984375 117.476562 319 117.46875 319.011719 C 117.464844 319.015625 117.464844 319.019531 117.460938 319.019531 C 112.273438 328.019531 108.570312 335.457031 106.355469 341.332031 C 104.414062 346.480469 103.621094 350.398438 103.976562 353.089844 C 106.605469 348.757812 109.507812 345.074219 112.679688 342.050781 C 116.0625 338.820312 119.753906 336.335938 123.757812 334.59375 C 123.902344 334.519531 124.082031 334.535156 124.210938 334.652344 C 124.375 334.796875 124.386719 335.046875 124.242188 335.210938 C 119.839844 340.113281 116.292969 345.832031 113.597656 352.363281 Z M 113.597656 352.363281 " fill-opacity="1" fill-rule="evenodd"/></g><g clip-path="url(#bf06f787a0)"><path fill="#000000" d="M 54.300781 374.90625 C 54.082031 374.90625 53.902344 374.730469 53.902344 374.511719 C 53.902344 374.292969 54.082031 374.113281 54.300781 374.113281 L 121.84375 373.980469 C 122.0625 373.980469 122.238281 374.15625 122.238281 374.375 C 122.238281 374.59375 122.0625 374.773438 121.84375 374.773438 Z M 54.300781 374.90625 " fill-opacity="1" fill-rule="nonzero"/></g><g clip-path="url(#87f88ecf52)"><path fill="#000000" d="M 72.898438 374.472656 C 72.898438 374.691406 72.71875 374.871094 72.5 374.871094 C 72.28125 374.871094 72.105469 374.691406 72.105469 374.472656 C 72.136719 363.683594 70.457031 354.804688 67.066406 347.828125 C 63.945312 341.402344 59.367188 336.589844 53.332031 333.398438 C 56.996094 338.460938 59.691406 344.246094 61.417969 350.75 C 63.292969 357.820312 64.019531 365.742188 63.59375 374.511719 C 63.582031 374.730469 63.398438 374.898438 63.179688 374.890625 C 62.960938 374.878906 62.792969 374.691406 62.800781 374.472656 C 63.222656 365.785156 62.503906 357.945312 60.648438 350.949219 C 58.800781 343.972656 55.8125 337.835938 51.695312 332.539062 C 51.605469 332.425781 51.582031 332.269531 51.648438 332.128906 C 51.742188 331.929688 51.976562 331.84375 52.175781 331.9375 C 59.125 335.1875 64.328125 340.367188 67.78125 347.480469 C 71.222656 354.566406 72.929688 363.5625 72.898438 374.472656 Z M 72.898438 374.472656 " fill-opacity="1" fill-rule="nonzero"/></g><g clip-path="url(#2ff2bbc7d2)"><path fill="#000000" d="M 80.175781 374.460938 C 80.175781 374.679688 80 374.855469 79.78125 374.855469 C 79.5625 374.855469 79.382812 374.679688 79.382812 374.460938 C 79.390625 371.410156 79.441406 368.21875 79.53125 364.875 C 79.621094 361.539062 79.75 358.0625 79.921875 354.453125 C 78.148438 346.722656 75.804688 340.226562 72.886719 334.96875 C 70.371094 330.441406 67.4375 326.828125 64.074219 324.132812 C 65.691406 327.054688 67.066406 330.953125 68.207031 335.828125 C 69.585938 341.742188 70.617188 349.101562 71.308594 357.914062 C 71.324219 358.132812 71.160156 358.324219 70.941406 358.339844 C 70.722656 358.355469 70.53125 358.191406 70.515625 357.972656 C 69.828125 349.203125 68.800781 341.882812 67.429688 336.007812 C 66.066406 330.164062 64.367188 325.765625 62.332031 322.8125 C 62.242188 322.679688 62.238281 322.5 62.332031 322.363281 C 62.457031 322.179688 62.703125 322.136719 62.882812 322.257812 C 67.039062 325.117188 70.605469 329.226562 73.578125 334.582031 C 76.539062 339.921875 78.917969 346.503906 80.707031 354.324219 C 80.714844 354.359375 80.71875 354.394531 80.714844 354.433594 C 80.542969 358.082031 80.414062 361.570312 80.324219 364.894531 C 80.234375 368.238281 80.183594 371.425781 80.175781 374.460938 Z M 80.175781 374.460938 " fill-opacity="1" fill-rule="nonzero"/></g><g clip-path="url(#0ff229aaf3)"><path fill="#000000" d="M 80.707031 354.496094 C 80.664062 354.710938 80.453125 354.847656 80.238281 354.804688 C 80.023438 354.757812 79.886719 354.546875 79.929688 354.332031 C 82.066406 344.164062 85.125 335.179688 89.105469 327.378906 C 93.089844 319.570312 97.996094 312.949219 103.832031 307.511719 C 103.992188 307.363281 104.242188 307.371094 104.390625 307.53125 C 104.507812 307.660156 104.527344 307.839844 104.453125 307.984375 C 100.042969 317.898438 96.738281 326.675781 94.546875 334.308594 C 92.6875 340.789062 91.632812 346.433594 91.378906 351.25 C 94.246094 343.472656 97.683594 336.921875 101.683594 331.597656 C 106.085938 325.730469 111.175781 321.351562 116.945312 318.460938 C 117.140625 318.363281 117.378906 318.441406 117.476562 318.636719 C 117.574219 318.832031 117.496094 319.070312 117.300781 319.167969 C 111.640625 322.003906 106.644531 326.304688 102.316406 332.070312 C 97.976562 337.851562 94.304688 345.109375 91.296875 353.84375 L 91.296875 353.839844 C 91.242188 353.996094 91.097656 354.109375 90.925781 354.109375 C 90.707031 354.109375 90.527344 353.933594 90.527344 353.714844 C 90.492188 348.316406 91.578125 341.773438 93.785156 334.089844 C 95.847656 326.898438 98.894531 318.699219 102.925781 309.484375 C 97.792969 314.582031 93.421875 320.667969 89.8125 327.742188 C 85.863281 335.480469 82.828125 344.398438 80.707031 354.496094 Z M 80.707031 354.496094 " fill-opacity="1" fill-rule="nonzero"/></g><g clip-path="url(#d514d60812)"><path fill="#000000" d="M 90.53125 353.644531 C 90.570312 353.429688 90.773438 353.285156 90.992188 353.320312 C 91.207031 353.359375 91.351562 353.566406 91.3125 353.78125 C 90.621094 357.738281 90.171875 361.4375 89.96875 364.871094 C 89.761719 368.308594 89.796875 371.484375 90.078125 374.402344 C 90.097656 374.621094 89.9375 374.8125 89.71875 374.835938 C 89.5 374.855469 89.308594 374.695312 89.289062 374.476562 C 89.003906 371.515625 88.96875 368.296875 89.175781 364.824219 C 89.382812 361.351562 89.835938 357.625 90.53125 353.644531 Z M 90.53125 353.644531 " fill-opacity="1" fill-rule="nonzero"/></g><g clip-path="url(#a532cde83e)"><path fill="#000000" d="M 116.78125 318.617188 C 116.890625 318.429688 117.132812 318.363281 117.320312 318.472656 C 117.511719 318.582031 117.574219 318.824219 117.46875 319.011719 C 112.277344 328.015625 108.570312 335.453125 106.355469 341.332031 C 104.414062 346.480469 103.621094 350.398438 103.976562 353.089844 C 106.605469 348.757812 109.507812 345.074219 112.679688 342.050781 C 116.070312 338.8125 119.773438 336.324219 123.789062 334.582031 C 123.988281 334.496094 124.222656 334.589844 124.308594 334.789062 C 124.394531 334.988281 124.304688 335.222656 124.101562 335.308594 C 120.179688 337.011719 116.550781 339.449219 113.226562 342.625 C 109.894531 345.804688 106.863281 349.722656 104.132812 354.378906 C 104.082031 354.464844 104 354.53125 103.894531 354.558594 C 103.683594 354.617188 103.464844 354.492188 103.410156 354.28125 C 102.625 351.433594 103.359375 347.023438 105.613281 341.050781 C 107.84375 335.140625 111.566406 327.660156 116.78125 318.617188 Z M 116.78125 318.617188 " fill-opacity="1" fill-rule="nonzero"/></g><g clip-path="url(#2f6e28f7b1)"><path fill="#000000" d="M 103.429688 354.011719 C 103.523438 353.8125 103.757812 353.726562 103.957031 353.816406 C 104.15625 353.910156 104.242188 354.144531 104.152344 354.34375 C 102.425781 358.0625 101.15625 361.59375 100.335938 364.9375 C 99.515625 368.28125 99.148438 371.4375 99.226562 374.410156 C 99.230469 374.628906 99.058594 374.8125 98.839844 374.816406 C 98.621094 374.824219 98.4375 374.648438 98.433594 374.429688 C 98.351562 371.386719 98.730469 368.160156 99.566406 364.753906 C 100.398438 361.351562 101.6875 357.769531 103.429688 354.011719 Z M 103.429688 354.011719 " fill-opacity="1" fill-rule="nonzero"/></g><g clip-path="url(#304557dfaa)"><path fill="#000000" d="M 123.648438 334.679688 C 123.796875 334.515625 124.046875 334.503906 124.210938 334.652344 C 124.375 334.796875 124.386719 335.046875 124.242188 335.210938 C 119.839844 340.113281 116.292969 345.832031 113.597656 352.363281 C 110.898438 358.902344 109.054688 366.265625 108.058594 374.449219 C 108.035156 374.667969 107.835938 374.824219 107.621094 374.796875 C 107.402344 374.773438 107.246094 374.574219 107.269531 374.355469 C 108.273438 366.105469 110.136719 358.671875 112.867188 352.0625 C 115.597656 345.441406 119.191406 339.648438 123.648438 334.679688 Z M 123.648438 334.679688 " fill-opacity="1" fill-rule="nonzero"/></g><g clip-path="url(#a2186d9999)"><path fill="#000000" d="M 110.777344 360.40625 C 110.625 360.5625 110.375 360.570312 110.21875 360.417969 C 110.058594 360.265625 110.054688 360.011719 110.207031 359.855469 C 114.527344 355.363281 118.664062 352.664062 122.621094 351.757812 C 122.835938 351.710938 123.046875 351.84375 123.097656 352.058594 C 123.121094 352.171875 123.097656 352.285156 123.03125 352.375 C 117.097656 361.535156 114.65625 368.847656 115.714844 374.3125 C 115.753906 374.527344 115.613281 374.738281 115.398438 374.777344 C 115.183594 374.820312 114.972656 374.679688 114.933594 374.464844 C 113.871094 368.964844 116.167969 361.742188 121.824219 352.792969 C 118.3125 353.863281 114.628906 356.402344 110.777344 360.40625 Z M 110.777344 360.40625 " fill-opacity="1" fill-rule="nonzero"/></g><g clip-path="url(#d360ccd5b7)"><path fill="#ffffff" d="M 161.929688 352.363281 C 161.085938 354.40625 160.324219 356.53125 159.648438 358.734375 C 163.566406 354.914062 167.335938 352.585938 170.949219 351.757812 C 171.164062 351.710938 171.375 351.84375 171.425781 352.058594 C 171.453125 352.171875 171.425781 352.285156 171.363281 352.375 C 165.542969 361.355469 163.082031 368.5625 163.984375 373.992188 L 170.171875 373.980469 C 170.390625 373.980469 170.566406 374.15625 170.566406 374.375 C 170.566406 374.59375 170.390625 374.773438 170.171875 374.773438 L 163.679688 374.785156 C 163.660156 374.785156 163.644531 374.785156 163.625 374.785156 L 156.027344 374.800781 C 156.007812 374.800781 155.984375 374.800781 155.964844 374.800781 L 147.167969 374.816406 C 147.160156 374.816406 147.15625 374.816406 147.148438 374.816406 L 138.023438 374.835938 C 138.015625 374.835938 138.007812 374.835938 138 374.835938 L 128.109375 374.855469 L 120.828125 374.871094 L 111.546875 374.886719 C 111.535156 374.890625 111.519531 374.890625 111.507812 374.890625 L 102.628906 374.90625 C 102.410156 374.90625 102.234375 374.730469 102.234375 374.511719 C 102.234375 374.292969 102.410156 374.113281 102.628906 374.113281 L 111.148438 374.097656 C 111.53125 365.558594 110.804688 357.84375 108.976562 350.949219 C 107.128906 343.972656 104.140625 337.835938 100.023438 332.539062 C 99.9375 332.425781 99.914062 332.269531 99.976562 332.128906 C 100.070312 331.929688 100.304688 331.84375 100.503906 331.9375 C 107.453125 335.1875 112.65625 340.367188 116.113281 347.480469 C 117.003906 349.320312 117.78125 351.289062 118.441406 353.386719 C 117.777344 346.621094 116.886719 340.828125 115.761719 336.007812 C 114.394531 330.164062 112.695312 325.765625 110.660156 322.8125 C 110.570312 322.679688 110.566406 322.5 110.660156 322.363281 C 110.785156 322.179688 111.03125 322.136719 111.210938 322.257812 C 115.371094 325.117188 118.933594 329.226562 121.90625 334.582031 C 124.652344 339.53125 126.894531 345.542969 128.632812 352.621094 C 130.746094 343.152344 133.679688 334.738281 137.433594 327.378906 C 141.417969 319.570312 146.324219 312.949219 152.160156 307.511719 C 152.320312 307.363281 152.570312 307.371094 152.71875 307.53125 C 152.835938 307.660156 152.855469 307.839844 152.785156 307.984375 C 148.371094 317.898438 145.070312 326.675781 142.878906 334.308594 C 141.019531 340.789062 139.960938 346.433594 139.707031 351.25 C 142.578125 343.472656 146.011719 336.921875 150.011719 331.597656 C 154.414062 325.730469 159.503906 321.351562 165.277344 318.460938 C 165.347656 318.425781 165.425781 318.414062 165.5 318.421875 C 165.535156 318.425781 165.574219 318.4375 165.609375 318.449219 C 165.621094 318.457031 165.636719 318.464844 165.648438 318.472656 C 165.714844 318.507812 165.769531 318.566406 165.808594 318.636719 C 165.84375 318.710938 165.855469 318.785156 165.847656 318.859375 C 165.84375 318.898438 165.832031 318.933594 165.816406 318.972656 C 165.8125 318.984375 165.804688 319 165.796875 319.011719 C 165.792969 319.015625 165.792969 319.019531 165.792969 319.019531 C 160.601562 328.019531 156.898438 335.457031 154.683594 341.332031 C 152.742188 346.480469 151.953125 350.398438 152.304688 353.089844 C 154.9375 348.757812 157.835938 345.074219 161.007812 342.050781 C 164.390625 338.820312 168.085938 336.335938 172.085938 334.59375 C 172.230469 334.519531 172.414062 334.535156 172.539062 334.652344 C 172.703125 334.796875 172.714844 335.046875 172.570312 335.210938 C 168.171875 340.113281 164.621094 345.832031 161.929688 352.363281 Z M 161.929688 352.363281 " fill-opacity="1" fill-rule="evenodd"/></g><g clip-path="url(#4918257222)"><path fill="#000000" d="M 102.628906 374.90625 C 102.410156 374.90625 102.234375 374.730469 102.234375 374.511719 C 102.234375 374.292969 102.410156 374.113281 102.628906 374.113281 L 170.171875 373.980469 C 170.390625 373.980469 170.566406 374.15625 170.566406 374.375 C 170.566406 374.59375 170.390625 374.773438 170.171875 374.773438 Z M 102.628906 374.90625 " fill-opacity="1" fill-rule="nonzero"/></g><g clip-path="url(#250bf74c57)"><path fill="#000000" d="M 121.226562 374.472656 C 121.226562 374.691406 121.046875 374.871094 120.828125 374.871094 C 120.609375 374.871094 120.433594 374.691406 120.433594 374.472656 C 120.464844 363.683594 118.785156 354.804688 115.398438 347.828125 C 112.273438 341.402344 107.695312 336.589844 101.660156 333.398438 C 105.324219 338.460938 108.019531 344.246094 109.746094 350.75 C 111.621094 357.820312 112.347656 365.742188 111.921875 374.511719 C 111.914062 374.730469 111.726562 374.898438 111.507812 374.890625 C 111.289062 374.878906 111.121094 374.691406 111.128906 374.472656 C 111.550781 365.785156 110.832031 357.945312 108.976562 350.949219 C 107.128906 343.972656 104.140625 337.835938 100.023438 332.539062 C 99.9375 332.425781 99.914062 332.269531 99.976562 332.128906 C 100.070312 331.929688 100.304688 331.84375 100.503906 331.9375 C 107.453125 335.1875 112.65625 340.367188 116.113281 347.480469 C 119.554688 354.566406 121.257812 363.5625 121.226562 374.472656 Z M 121.226562 374.472656 " fill-opacity="1" fill-rule="nonzero"/></g><g clip-path="url(#e777baec43)"><path fill="#000000" d="M 128.503906 374.460938 C 128.503906 374.679688 128.328125 374.855469 128.109375 374.855469 C 127.890625 374.855469 127.714844 374.679688 127.714844 374.460938 C 127.722656 371.410156 127.769531 368.21875 127.859375 364.875 C 127.949219 361.539062 128.078125 358.0625 128.25 354.453125 C 126.476562 346.722656 124.132812 340.226562 121.214844 334.96875 C 118.703125 330.441406 115.765625 326.828125 112.40625 324.132812 C 114.019531 327.054688 115.394531 330.953125 116.535156 335.828125 C 117.914062 341.742188 118.949219 349.101562 119.636719 357.914062 C 119.652344 358.132812 119.488281 358.324219 119.269531 358.339844 C 119.050781 358.355469 118.859375 358.191406 118.84375 357.972656 C 118.160156 349.203125 117.132812 341.882812 115.761719 336.007812 C 114.394531 330.164062 112.695312 325.765625 110.660156 322.8125 C 110.570312 322.679688 110.566406 322.5 110.660156 322.363281 C 110.785156 322.179688 111.03125 322.136719 111.210938 322.257812 C 115.371094 325.117188 118.933594 329.226562 121.90625 334.582031 C 124.871094 339.921875 127.246094 346.503906 129.035156 354.324219 C 129.042969 354.359375 129.046875 354.394531 129.042969 354.433594 C 128.871094 358.082031 128.742188 361.570312 128.652344 364.894531 C 128.5625 368.238281 128.511719 371.425781 128.503906 374.460938 Z M 128.503906 374.460938 " fill-opacity="1" fill-rule="nonzero"/></g><g clip-path="url(#3ea14f4e62)"><path fill="#000000" d="M 129.035156 354.496094 C 128.992188 354.710938 128.78125 354.847656 128.566406 354.804688 C 128.351562 354.757812 128.214844 354.546875 128.261719 354.332031 C 130.394531 344.164062 133.453125 335.179688 137.433594 327.378906 C 141.417969 319.570312 146.324219 312.949219 152.160156 307.511719 C 152.320312 307.363281 152.570312 307.371094 152.71875 307.53125 C 152.835938 307.660156 152.855469 307.839844 152.785156 307.984375 C 148.371094 317.898438 145.070312 326.675781 142.878906 334.308594 C 141.019531 340.789062 139.960938 346.433594 139.707031 351.25 C 142.578125 343.472656 146.011719 336.921875 150.011719 331.597656 C 154.414062 325.730469 159.503906 321.351562 165.277344 318.460938 C 165.472656 318.363281 165.710938 318.441406 165.808594 318.636719 C 165.90625 318.832031 165.824219 319.070312 165.628906 319.167969 C 159.96875 322.003906 154.972656 326.304688 150.644531 332.070312 C 146.304688 337.851562 142.632812 345.109375 139.628906 353.84375 L 139.625 353.839844 C 139.574219 353.996094 139.425781 354.109375 139.253906 354.109375 C 139.035156 354.109375 138.855469 353.933594 138.855469 353.714844 C 138.820312 348.316406 139.90625 341.773438 142.113281 334.089844 C 144.175781 326.898438 147.222656 318.699219 151.253906 309.484375 C 146.121094 314.582031 141.75 320.667969 138.140625 327.742188 C 134.191406 335.480469 131.15625 344.398438 129.035156 354.496094 Z M 129.035156 354.496094 " fill-opacity="1" fill-rule="nonzero"/></g><g clip-path="url(#7eb59b0339)"><path fill="#000000" d="M 138.859375 353.644531 C 138.898438 353.429688 139.101562 353.285156 139.320312 353.320312 C 139.535156 353.359375 139.679688 353.566406 139.644531 353.78125 C 138.949219 357.738281 138.5 361.4375 138.296875 364.871094 C 138.089844 368.308594 138.128906 371.484375 138.40625 374.402344 C 138.425781 374.621094 138.265625 374.8125 138.046875 374.835938 C 137.832031 374.855469 137.636719 374.695312 137.617188 374.476562 C 137.332031 371.515625 137.296875 368.296875 137.503906 364.824219 C 137.710938 361.351562 138.164062 357.625 138.859375 353.644531 Z M 138.859375 353.644531 " fill-opacity="1" fill-rule="nonzero"/></g><g clip-path="url(#bb5988b4e9)"><path fill="#000000" d="M 165.109375 318.617188 C 165.21875 318.429688 165.460938 318.363281 165.648438 318.472656 C 165.839844 318.582031 165.90625 318.824219 165.796875 319.011719 C 160.605469 328.015625 156.902344 335.453125 154.683594 341.332031 C 152.742188 346.480469 151.953125 350.398438 152.304688 353.089844 C 154.9375 348.757812 157.835938 345.074219 161.007812 342.050781 C 164.398438 338.8125 168.101562 336.324219 172.117188 334.582031 C 172.316406 334.496094 172.550781 334.589844 172.636719 334.789062 C 172.726562 334.988281 172.632812 335.222656 172.429688 335.308594 C 168.507812 337.011719 164.882812 339.449219 161.554688 342.625 C 158.222656 345.804688 155.191406 349.722656 152.460938 354.378906 C 152.410156 354.464844 152.328125 354.53125 152.222656 354.558594 C 152.011719 354.617188 151.792969 354.492188 151.738281 354.28125 C 150.957031 351.433594 151.691406 347.023438 153.941406 341.050781 C 156.171875 335.140625 159.894531 327.660156 165.109375 318.617188 Z M 165.109375 318.617188 " fill-opacity="1" fill-rule="nonzero"/></g><g clip-path="url(#8fb9346977)"><path fill="#000000" d="M 151.757812 354.011719 C 151.851562 353.8125 152.085938 353.726562 152.285156 353.816406 C 152.484375 353.910156 152.570312 354.144531 152.480469 354.34375 C 150.757812 358.0625 149.484375 361.59375 148.664062 364.9375 C 147.847656 368.28125 147.476562 371.4375 147.554688 374.410156 C 147.558594 374.628906 147.386719 374.8125 147.167969 374.816406 C 146.949219 374.824219 146.769531 374.648438 146.761719 374.429688 C 146.683594 371.386719 147.058594 368.160156 147.894531 364.753906 C 148.726562 361.351562 150.015625 357.769531 151.757812 354.011719 Z M 151.757812 354.011719 " fill-opacity="1" fill-rule="nonzero"/></g><g clip-path="url(#df1f11d7fd)"><path fill="#000000" d="M 171.980469 334.679688 C 172.125 334.515625 172.378906 334.503906 172.539062 334.652344 C 172.703125 334.796875 172.714844 335.046875 172.570312 335.210938 C 168.171875 340.113281 164.621094 345.832031 161.929688 352.363281 C 159.230469 358.902344 157.382812 366.265625 156.390625 374.449219 C 156.363281 374.667969 156.167969 374.824219 155.949219 374.796875 C 155.730469 374.773438 155.574219 374.574219 155.601562 374.355469 C 156.601562 366.105469 158.46875 358.671875 161.195312 352.0625 C 163.925781 345.441406 167.519531 339.648438 171.980469 334.679688 Z M 171.980469 334.679688 " fill-opacity="1" fill-rule="nonzero"/></g><g clip-path="url(#8ff7ba78a5)"><path fill="#000000" d="M 159.105469 360.40625 C 158.953125 360.5625 158.703125 360.570312 158.546875 360.417969 C 158.386719 360.265625 158.382812 360.011719 158.535156 359.855469 C 162.855469 355.363281 166.992188 352.664062 170.949219 351.757812 C 171.164062 351.710938 171.375 351.84375 171.425781 352.058594 C 171.453125 352.171875 171.425781 352.285156 171.363281 352.375 C 165.425781 361.535156 162.988281 368.847656 164.042969 374.3125 C 164.082031 374.527344 163.941406 374.738281 163.726562 374.777344 C 163.511719 374.820312 163.304688 374.679688 163.261719 374.464844 C 162.199219 368.964844 164.496094 361.742188 170.152344 352.792969 C 166.640625 353.863281 162.960938 356.402344 159.105469 360.40625 Z M 159.105469 360.40625 " fill-opacity="1" fill-rule="nonzero"/></g><g clip-path="url(#93f281fa9c)"><path fill="#ffffff" d="M 213.058594 352.363281 C 212.214844 354.40625 211.453125 356.53125 210.777344 358.734375 C 214.699219 354.914062 218.464844 352.585938 222.078125 351.757812 C 222.292969 351.710938 222.507812 351.84375 222.554688 352.058594 C 222.582031 352.171875 222.554688 352.285156 222.492188 352.375 C 216.671875 361.355469 214.214844 368.5625 215.113281 373.992188 L 221.300781 373.980469 C 221.519531 373.980469 221.699219 374.15625 221.699219 374.375 C 221.699219 374.59375 221.519531 374.773438 221.300781 374.773438 L 214.808594 374.785156 C 214.792969 374.785156 214.773438 374.785156 214.753906 374.785156 L 207.15625 374.800781 C 207.136719 374.800781 207.117188 374.800781 207.09375 374.800781 L 198.300781 374.816406 C 198.300781 374.816406 198.296875 374.816406 198.296875 374.816406 C 198.292969 374.816406 198.285156 374.816406 198.28125 374.816406 L 189.15625 374.835938 C 189.144531 374.835938 189.136719 374.835938 189.128906 374.835938 L 179.238281 374.855469 L 171.960938 374.871094 L 162.675781 374.886719 C 162.664062 374.890625 162.652344 374.890625 162.640625 374.890625 L 153.757812 374.90625 C 153.539062 374.90625 153.363281 374.730469 153.363281 374.511719 C 153.363281 374.292969 153.539062 374.113281 153.757812 374.113281 L 162.277344 374.097656 C 162.660156 365.558594 161.9375 357.84375 160.109375 350.949219 C 158.257812 343.972656 155.273438 337.835938 151.152344 332.539062 L 151.15625 332.539062 C 151.066406 332.425781 151.042969 332.269531 151.109375 332.128906 C 151.199219 331.929688 151.4375 331.84375 151.636719 331.9375 C 158.582031 335.1875 163.785156 340.367188 167.242188 347.480469 C 168.136719 349.320312 168.914062 351.289062 169.570312 353.386719 C 168.910156 346.621094 168.015625 340.828125 166.890625 336.007812 C 165.527344 330.164062 163.828125 325.765625 161.792969 322.8125 C 161.703125 322.679688 161.695312 322.5 161.792969 322.363281 C 161.914062 322.179688 162.160156 322.136719 162.339844 322.257812 C 166.5 325.117188 170.066406 329.226562 173.039062 334.582031 C 175.78125 339.53125 178.023438 345.542969 179.761719 352.621094 C 181.875 343.152344 184.808594 334.738281 188.5625 327.378906 C 192.546875 319.570312 197.457031 312.949219 203.289062 307.511719 C 203.449219 307.363281 203.699219 307.371094 203.851562 307.53125 C 203.96875 307.660156 203.988281 307.839844 203.914062 307.984375 C 199.5 317.898438 196.199219 326.675781 194.007812 334.308594 C 192.148438 340.789062 191.089844 346.433594 190.835938 351.25 C 193.707031 343.472656 197.140625 336.921875 201.140625 331.597656 C 205.546875 325.730469 210.632812 321.351562 216.40625 318.460938 C 216.476562 318.425781 216.554688 318.414062 216.628906 318.421875 C 216.664062 318.425781 216.703125 318.4375 216.738281 318.449219 C 216.753906 318.457031 216.765625 318.464844 216.78125 318.472656 C 216.84375 318.507812 216.902344 318.566406 216.9375 318.636719 C 216.972656 318.710938 216.984375 318.785156 216.976562 318.859375 C 216.972656 318.898438 216.960938 318.933594 216.949219 318.972656 C 216.941406 318.984375 216.933594 319 216.925781 319.011719 C 216.925781 319.015625 216.921875 319.019531 216.921875 319.019531 C 211.734375 328.019531 208.03125 335.457031 205.816406 341.332031 C 203.875 346.480469 203.082031 350.398438 203.4375 353.089844 C 206.066406 348.757812 208.96875 345.074219 212.136719 342.050781 C 215.523438 338.820312 219.214844 336.335938 223.21875 334.59375 C 223.359375 334.519531 223.542969 334.535156 223.671875 334.652344 C 223.832031 334.796875 223.847656 335.046875 223.699219 335.210938 C 219.300781 340.113281 215.753906 345.832031 213.058594 352.363281 Z M 213.058594 352.363281 " fill-opacity="1" fill-rule="evenodd"/></g><g clip-path="url(#5585d94caa)"><path fill="#000000" d="M 153.757812 374.90625 C 153.539062 374.90625 153.363281 374.730469 153.363281 374.511719 C 153.363281 374.292969 153.539062 374.113281 153.757812 374.113281 L 221.300781 373.980469 C 221.519531 373.980469 221.699219 374.15625 221.699219 374.375 C 221.699219 374.59375 221.519531 374.773438 221.300781 374.773438 Z M 153.757812 374.90625 " fill-opacity="1" fill-rule="nonzero"/></g><g clip-path="url(#365a91d9ab)"><path fill="#000000" d="M 172.355469 374.472656 C 172.355469 374.691406 172.179688 374.871094 171.960938 374.871094 C 171.742188 374.871094 171.5625 374.691406 171.5625 374.472656 C 171.59375 363.683594 169.917969 354.804688 166.527344 347.828125 C 163.40625 341.402344 158.828125 336.589844 152.789062 333.398438 C 156.457031 338.460938 159.152344 344.246094 160.875 350.75 C 162.75 357.820312 163.476562 365.742188 163.054688 374.511719 C 163.042969 374.730469 162.855469 374.898438 162.636719 374.890625 C 162.417969 374.878906 162.25 374.691406 162.261719 374.472656 C 162.679688 365.785156 161.964844 357.945312 160.109375 350.949219 C 158.257812 343.972656 155.273438 337.835938 151.152344 332.539062 L 151.15625 332.539062 C 151.066406 332.425781 151.042969 332.269531 151.109375 332.128906 C 151.199219 331.929688 151.4375 331.84375 151.636719 331.9375 C 158.582031 335.1875 163.785156 340.367188 167.242188 347.480469 C 170.683594 354.566406 172.386719 363.5625 172.355469 374.472656 Z M 172.355469 374.472656 " fill-opacity="1" fill-rule="nonzero"/></g><g clip-path="url(#ba8c41f1c1)"><path fill="#000000" d="M 179.636719 374.460938 C 179.636719 374.679688 179.457031 374.855469 179.238281 374.855469 C 179.019531 374.855469 178.84375 374.679688 178.84375 374.460938 C 178.851562 371.410156 178.898438 368.21875 178.988281 364.875 C 179.078125 361.539062 179.210938 358.0625 179.378906 354.453125 C 177.609375 346.722656 175.261719 340.226562 172.34375 334.96875 C 169.832031 330.441406 166.894531 326.828125 163.535156 324.132812 C 165.148438 327.054688 166.527344 330.953125 167.664062 335.828125 C 169.042969 341.742188 170.078125 349.101562 170.765625 357.914062 C 170.78125 358.132812 170.617188 358.324219 170.398438 358.339844 C 170.179688 358.355469 169.992188 358.191406 169.972656 357.972656 C 169.289062 349.203125 168.261719 341.882812 166.890625 336.007812 C 165.527344 330.164062 163.828125 325.765625 161.792969 322.8125 C 161.703125 322.679688 161.695312 322.5 161.792969 322.363281 C 161.914062 322.179688 162.160156 322.136719 162.339844 322.257812 C 166.5 325.117188 170.066406 329.226562 173.039062 334.582031 C 176 339.921875 178.375 346.503906 180.164062 354.324219 C 180.171875 354.359375 180.175781 354.394531 180.175781 354.433594 C 180.003906 358.082031 179.871094 361.570312 179.78125 364.894531 C 179.691406 368.238281 179.644531 371.425781 179.636719 374.460938 Z M 179.636719 374.460938 " fill-opacity="1" fill-rule="nonzero"/></g><g clip-path="url(#7bf1aa5125)"><path fill="#000000" d="M 180.167969 354.496094 C 180.121094 354.710938 179.914062 354.847656 179.699219 354.804688 C 179.484375 354.757812 179.34375 354.546875 179.390625 354.332031 C 181.527344 344.164062 184.585938 335.179688 188.5625 327.378906 C 192.546875 319.570312 197.457031 312.949219 203.289062 307.511719 C 203.449219 307.363281 203.699219 307.371094 203.851562 307.53125 C 203.96875 307.660156 203.988281 307.839844 203.914062 307.984375 C 199.5 317.898438 196.199219 326.675781 194.007812 334.308594 C 192.148438 340.789062 191.089844 346.433594 190.835938 351.25 C 193.707031 343.472656 197.140625 336.921875 201.140625 331.597656 C 205.546875 325.730469 210.632812 321.351562 216.40625 318.460938 C 216.601562 318.363281 216.839844 318.441406 216.9375 318.636719 C 217.035156 318.832031 216.957031 319.070312 216.761719 319.167969 C 211.097656 322.003906 206.105469 326.304688 201.773438 332.070312 C 197.433594 337.851562 193.761719 345.109375 190.757812 353.84375 L 190.757812 353.839844 C 190.703125 353.996094 190.554688 354.109375 190.382812 354.109375 C 190.164062 354.109375 189.984375 353.933594 189.984375 353.714844 C 189.953125 348.316406 191.039062 341.773438 193.242188 334.089844 C 195.308594 326.898438 198.355469 318.699219 202.382812 309.484375 C 197.25 314.582031 192.878906 320.667969 189.269531 327.742188 C 185.324219 335.480469 182.289062 344.398438 180.167969 354.496094 Z M 180.167969 354.496094 " fill-opacity="1" fill-rule="nonzero"/></g><g clip-path="url(#2f6638e4ec)"><path fill="#000000" d="M 189.988281 353.644531 C 190.027344 353.429688 190.234375 353.285156 190.449219 353.320312 C 190.667969 353.359375 190.8125 353.566406 190.773438 353.78125 C 190.082031 357.738281 189.632812 361.4375 189.425781 364.871094 C 189.222656 368.308594 189.257812 371.484375 189.535156 374.402344 C 189.554688 374.621094 189.398438 374.8125 189.179688 374.835938 C 188.960938 374.855469 188.765625 374.695312 188.746094 374.476562 C 188.464844 371.515625 188.425781 368.296875 188.632812 364.824219 C 188.84375 361.351562 189.292969 357.625 189.988281 353.644531 Z M 189.988281 353.644531 " fill-opacity="1" fill-rule="nonzero"/></g><g clip-path="url(#ee4c9a6179)"><path fill="#000000" d="M 216.238281 318.617188 C 216.347656 318.429688 216.589844 318.363281 216.78125 318.472656 C 216.96875 318.582031 217.035156 318.824219 216.925781 319.011719 C 211.734375 328.015625 208.03125 335.453125 205.816406 341.332031 C 203.875 346.480469 203.082031 350.398438 203.4375 353.089844 C 206.066406 348.757812 208.96875 345.074219 212.136719 342.050781 C 215.53125 338.8125 219.234375 336.324219 223.246094 334.582031 C 223.449219 334.496094 223.683594 334.589844 223.769531 334.789062 C 223.855469 334.988281 223.761719 335.222656 223.5625 335.308594 C 219.636719 337.011719 216.011719 339.449219 212.683594 342.625 C 209.351562 345.804688 206.320312 349.722656 203.589844 354.378906 C 203.539062 354.464844 203.457031 354.53125 203.355469 354.558594 C 203.144531 354.617188 202.925781 354.492188 202.867188 354.28125 C 202.085938 351.433594 202.820312 347.023438 205.074219 341.050781 C 207.300781 335.140625 211.023438 327.660156 216.238281 318.617188 Z M 216.238281 318.617188 " fill-opacity="1" fill-rule="nonzero"/></g><g clip-path="url(#c22ede79bd)"><path fill="#000000" d="M 202.890625 354.011719 C 202.980469 353.8125 203.21875 353.726562 203.414062 353.816406 C 203.613281 353.910156 203.703125 354.144531 203.609375 354.34375 C 201.886719 358.0625 200.613281 361.59375 199.792969 364.9375 C 198.976562 368.28125 198.605469 371.4375 198.683594 374.410156 C 198.691406 374.628906 198.515625 374.8125 198.296875 374.816406 C 198.078125 374.824219 197.898438 374.648438 197.894531 374.429688 C 197.8125 371.386719 198.1875 368.160156 199.023438 364.753906 C 199.859375 361.351562 201.144531 357.769531 202.890625 354.011719 Z M 202.890625 354.011719 " fill-opacity="1" fill-rule="nonzero"/></g><g clip-path="url(#d8ced44dce)"><path fill="#000000" d="M 223.109375 334.679688 C 223.257812 334.515625 223.507812 334.503906 223.671875 334.652344 C 223.832031 334.796875 223.847656 335.046875 223.699219 335.210938 C 219.300781 340.113281 215.753906 345.832031 213.058594 352.363281 C 210.359375 358.902344 208.511719 366.265625 207.519531 374.449219 C 207.492188 374.667969 207.296875 374.824219 207.078125 374.796875 C 206.859375 374.773438 206.703125 374.574219 206.730469 374.355469 C 207.730469 366.105469 209.597656 358.671875 212.324219 352.0625 C 215.054688 345.441406 218.652344 339.648438 223.109375 334.679688 Z M 223.109375 334.679688 " fill-opacity="1" fill-rule="nonzero"/></g><g clip-path="url(#32faba9c41)"><path fill="#000000" d="M 210.238281 360.40625 C 210.085938 360.5625 209.832031 360.570312 209.675781 360.417969 C 209.519531 360.265625 209.511719 360.011719 209.664062 359.855469 C 213.984375 355.363281 218.125 352.664062 222.078125 351.757812 C 222.292969 351.710938 222.507812 351.84375 222.554688 352.058594 C 222.582031 352.171875 222.554688 352.285156 222.492188 352.375 C 216.558594 361.535156 214.117188 368.847656 215.171875 374.3125 C 215.214844 374.527344 215.070312 374.738281 214.855469 374.777344 C 214.640625 374.820312 214.433594 374.679688 214.390625 374.464844 C 213.332031 368.964844 215.628906 361.742188 221.285156 352.792969 C 217.773438 353.863281 214.089844 356.402344 210.238281 360.40625 Z M 210.238281 360.40625 " fill-opacity="1" fill-rule="nonzero"/></g><g clip-path="url(#339d16d022)"><path fill="#ffffff" d="M 261.804688 352.363281 C 260.960938 354.40625 260.203125 356.53125 259.523438 358.734375 C 263.445312 354.914062 267.210938 352.585938 270.828125 351.757812 C 271.039062 351.710938 271.253906 351.84375 271.300781 352.058594 C 271.328125 352.171875 271.300781 352.285156 271.238281 352.375 C 265.417969 361.355469 262.960938 368.5625 263.859375 373.992188 L 270.046875 373.980469 C 270.265625 373.980469 270.445312 374.15625 270.445312 374.375 C 270.445312 374.59375 270.265625 374.773438 270.046875 374.773438 L 263.558594 374.785156 C 263.539062 374.785156 263.519531 374.785156 263.503906 374.785156 L 255.902344 374.800781 C 255.882812 374.800781 255.863281 374.800781 255.84375 374.800781 L 247.046875 374.816406 C 247.039062 374.816406 247.03125 374.816406 247.027344 374.816406 L 237.902344 374.835938 C 237.894531 374.835938 237.882812 374.835938 237.875 374.835938 L 227.984375 374.855469 L 220.707031 374.871094 L 211.425781 374.886719 C 211.410156 374.890625 211.398438 374.890625 211.386719 374.890625 L 202.507812 374.90625 C 202.289062 374.90625 202.109375 374.730469 202.109375 374.511719 C 202.109375 374.292969 202.289062 374.113281 202.507812 374.113281 L 211.027344 374.097656 C 211.40625 365.558594 210.683594 357.84375 208.855469 350.949219 C 207.003906 343.972656 204.019531 337.835938 199.898438 332.539062 L 199.902344 332.539062 C 199.8125 332.425781 199.789062 332.269531 199.855469 332.128906 C 199.949219 331.929688 200.183594 331.84375 200.382812 331.9375 C 207.332031 335.1875 212.53125 340.367188 215.988281 347.480469 C 216.882812 349.320312 217.660156 351.289062 218.320312 353.386719 C 217.65625 346.621094 216.761719 340.828125 215.636719 336.007812 C 214.273438 330.164062 212.574219 325.765625 210.539062 322.8125 C 210.449219 322.679688 210.441406 322.5 210.539062 322.363281 C 210.660156 322.179688 210.90625 322.136719 211.089844 322.257812 C 215.246094 325.117188 218.8125 329.226562 221.785156 334.582031 C 224.53125 339.53125 226.769531 345.542969 228.507812 352.621094 C 230.621094 343.152344 233.554688 334.738281 237.308594 327.378906 C 241.292969 319.570312 246.203125 312.949219 252.035156 307.511719 C 252.195312 307.363281 252.449219 307.371094 252.597656 307.53125 C 252.714844 307.660156 252.734375 307.839844 252.660156 307.984375 C 248.246094 317.898438 244.945312 326.675781 242.753906 334.308594 C 240.894531 340.789062 239.839844 346.433594 239.585938 351.25 C 242.453125 343.472656 245.886719 336.921875 249.886719 331.597656 C 254.292969 325.730469 259.378906 321.351562 265.152344 318.460938 C 265.222656 318.425781 265.300781 318.414062 265.375 318.421875 C 265.414062 318.425781 265.449219 318.4375 265.484375 318.449219 C 265.5 318.457031 265.511719 318.464844 265.527344 318.472656 C 265.59375 318.507812 265.648438 318.566406 265.683594 318.636719 C 265.71875 318.710938 265.730469 318.785156 265.722656 318.859375 C 265.71875 318.898438 265.710938 318.933594 265.695312 318.972656 C 265.6875 318.984375 265.679688 319 265.671875 319.011719 C 265.671875 319.015625 265.671875 319.019531 265.667969 319.019531 C 260.480469 328.019531 256.777344 335.457031 254.5625 341.332031 C 252.621094 346.480469 251.828125 350.398438 252.183594 353.089844 C 254.8125 348.757812 257.714844 345.074219 260.886719 342.050781 C 264.269531 338.820312 267.960938 336.335938 271.964844 334.59375 C 272.109375 334.519531 272.289062 334.535156 272.417969 334.652344 C 272.582031 334.796875 272.59375 335.046875 272.445312 335.210938 C 268.046875 340.113281 264.5 345.832031 261.804688 352.363281 Z M 261.804688 352.363281 " fill-opacity="1" fill-rule="evenodd"/></g><g clip-path="url(#e83db17c17)"><path fill="#000000" d="M 202.507812 374.90625 C 202.289062 374.90625 202.109375 374.730469 202.109375 374.511719 C 202.109375 374.292969 202.289062 374.113281 202.507812 374.113281 L 270.046875 373.980469 C 270.265625 373.980469 270.445312 374.15625 270.445312 374.375 C 270.445312 374.59375 270.265625 374.773438 270.046875 374.773438 Z M 202.507812 374.90625 " fill-opacity="1" fill-rule="nonzero"/></g><g clip-path="url(#25928e1a27)"><path fill="#000000" d="M 221.101562 374.472656 C 221.101562 374.691406 220.925781 374.871094 220.707031 374.871094 C 220.488281 374.871094 220.308594 374.691406 220.308594 374.472656 C 220.34375 363.683594 218.664062 354.804688 215.273438 347.828125 C 212.152344 341.402344 207.574219 336.589844 201.539062 333.398438 C 205.203125 338.460938 207.898438 344.246094 209.625 350.75 C 211.5 357.820312 212.222656 365.742188 211.800781 374.511719 C 211.789062 374.730469 211.605469 374.898438 211.386719 374.890625 C 211.167969 374.878906 210.996094 374.691406 211.007812 374.472656 C 211.429688 365.785156 210.710938 357.945312 208.855469 350.949219 C 207.003906 343.972656 204.019531 337.835938 199.898438 332.539062 L 199.902344 332.539062 C 199.8125 332.425781 199.789062 332.269531 199.855469 332.128906 C 199.949219 331.929688 200.183594 331.84375 200.382812 331.9375 C 207.332031 335.1875 212.53125 340.367188 215.988281 347.480469 C 219.429688 354.566406 221.136719 363.5625 221.101562 374.472656 Z M 221.101562 374.472656 " fill-opacity="1" fill-rule="nonzero"/></g><g clip-path="url(#0fe9f68654)"><path fill="#000000" d="M 228.382812 374.460938 C 228.382812 374.679688 228.203125 374.855469 227.984375 374.855469 C 227.765625 374.855469 227.589844 374.679688 227.589844 374.460938 C 227.597656 371.410156 227.648438 368.21875 227.738281 364.875 C 227.828125 361.539062 227.957031 358.0625 228.125 354.453125 C 226.355469 346.722656 224.011719 340.226562 221.09375 334.96875 C 218.578125 330.441406 215.640625 326.828125 212.28125 324.132812 C 213.898438 327.054688 215.273438 330.953125 216.410156 335.828125 C 217.792969 341.742188 218.824219 349.101562 219.511719 357.914062 C 219.53125 358.132812 219.367188 358.324219 219.148438 358.339844 C 218.929688 358.355469 218.738281 358.191406 218.722656 357.972656 C 218.035156 349.203125 217.007812 341.882812 215.636719 336.007812 C 214.273438 330.164062 212.574219 325.765625 210.539062 322.8125 C 210.449219 322.679688 210.441406 322.5 210.539062 322.363281 C 210.660156 322.179688 210.90625 322.136719 211.089844 322.257812 C 215.246094 325.117188 218.8125 329.226562 221.785156 334.582031 C 224.746094 339.921875 227.121094 346.503906 228.914062 354.324219 C 228.917969 354.359375 228.921875 354.394531 228.921875 354.433594 C 228.75 358.082031 228.617188 361.570312 228.527344 364.894531 C 228.4375 368.238281 228.390625 371.425781 228.382812 374.460938 Z M 228.382812 374.460938 " fill-opacity="1" fill-rule="nonzero"/></g><g clip-path="url(#91791d66c0)"><path fill="#000000" d="M 228.914062 354.496094 C 228.871094 354.710938 228.660156 354.847656 228.445312 354.804688 C 228.230469 354.757812 228.09375 354.546875 228.136719 354.332031 C 230.273438 344.164062 233.332031 335.179688 237.308594 327.378906 C 241.292969 319.570312 246.203125 312.949219 252.035156 307.511719 C 252.195312 307.363281 252.449219 307.371094 252.597656 307.53125 C 252.714844 307.660156 252.734375 307.839844 252.660156 307.984375 C 248.246094 317.898438 244.945312 326.675781 242.753906 334.308594 C 240.894531 340.789062 239.839844 346.433594 239.585938 351.25 C 242.453125 343.472656 245.886719 336.921875 249.886719 331.597656 C 254.292969 325.730469 259.378906 321.351562 265.152344 318.460938 C 265.347656 318.363281 265.585938 318.441406 265.683594 318.636719 C 265.78125 318.832031 265.703125 319.070312 265.507812 319.167969 C 259.847656 322.003906 254.851562 326.304688 250.523438 332.070312 C 246.179688 337.851562 242.507812 345.109375 239.503906 353.84375 L 239.503906 353.839844 C 239.449219 353.996094 239.304688 354.109375 239.128906 354.109375 C 238.910156 354.109375 238.734375 353.933594 238.730469 353.714844 C 238.699219 348.316406 239.785156 341.773438 241.992188 334.089844 C 244.054688 326.898438 247.101562 318.699219 251.132812 309.484375 C 245.996094 314.582031 241.625 320.667969 238.019531 327.742188 C 234.070312 335.480469 231.035156 344.398438 228.914062 354.496094 Z M 228.914062 354.496094 " fill-opacity="1" fill-rule="nonzero"/></g><g clip-path="url(#475369151c)"><path fill="#000000" d="M 238.738281 353.644531 C 238.773438 353.429688 238.980469 353.285156 239.195312 353.320312 C 239.414062 353.359375 239.558594 353.566406 239.519531 353.78125 C 238.828125 357.738281 238.378906 361.4375 238.171875 364.871094 C 237.96875 368.308594 238.003906 371.484375 238.28125 374.402344 C 238.304688 374.621094 238.144531 374.8125 237.925781 374.835938 C 237.707031 374.855469 237.515625 374.695312 237.492188 374.476562 C 237.210938 371.515625 237.171875 368.296875 237.382812 364.824219 C 237.589844 361.351562 238.039062 357.625 238.738281 353.644531 Z M 238.738281 353.644531 " fill-opacity="1" fill-rule="nonzero"/></g><g clip-path="url(#dd0c2994a3)"><path fill="#000000" d="M 264.988281 318.617188 C 265.09375 318.429688 265.335938 318.363281 265.527344 318.472656 C 265.71875 318.582031 265.78125 318.824219 265.671875 319.011719 C 260.480469 328.015625 256.777344 335.453125 254.5625 341.332031 C 252.621094 346.480469 251.828125 350.398438 252.183594 353.089844 C 254.8125 348.757812 257.714844 345.074219 260.886719 342.050781 C 264.277344 338.8125 267.980469 336.324219 271.996094 334.582031 C 272.195312 334.496094 272.429688 334.589844 272.515625 334.789062 C 272.601562 334.988281 272.507812 335.222656 272.308594 335.308594 C 268.382812 337.011719 264.757812 339.449219 261.433594 342.625 C 258.097656 345.804688 255.066406 349.722656 252.339844 354.378906 C 252.289062 354.464844 252.203125 354.53125 252.101562 354.558594 C 251.890625 354.617188 251.671875 354.492188 251.613281 354.28125 C 250.832031 351.433594 251.566406 347.023438 253.820312 341.050781 C 256.046875 335.140625 259.769531 327.660156 264.988281 318.617188 Z M 264.988281 318.617188 " fill-opacity="1" fill-rule="nonzero"/></g><g clip-path="url(#07f2509baf)"><path fill="#000000" d="M 251.636719 354.011719 C 251.726562 353.8125 251.964844 353.726562 252.164062 353.816406 C 252.363281 353.910156 252.449219 354.144531 252.355469 354.34375 C 250.632812 358.0625 249.363281 361.59375 248.542969 364.9375 C 247.722656 368.28125 247.351562 371.4375 247.433594 374.410156 C 247.4375 374.628906 247.265625 374.8125 247.046875 374.816406 C 246.828125 374.824219 246.644531 374.648438 246.640625 374.429688 C 246.558594 371.386719 246.9375 368.160156 247.769531 364.753906 C 248.605469 361.351562 249.894531 357.769531 251.636719 354.011719 Z M 251.636719 354.011719 " fill-opacity="1" fill-rule="nonzero"/></g><g clip-path="url(#f4c2c074ae)"><path fill="#000000" d="M 271.855469 334.679688 C 272.003906 334.515625 272.253906 334.503906 272.417969 334.652344 C 272.582031 334.796875 272.59375 335.046875 272.445312 335.210938 C 268.046875 340.113281 264.5 345.832031 261.804688 352.363281 C 259.105469 358.902344 257.261719 366.265625 256.265625 374.449219 C 256.242188 374.667969 256.042969 374.824219 255.824219 374.796875 C 255.609375 374.773438 255.453125 374.574219 255.476562 374.355469 C 256.480469 366.105469 258.34375 358.671875 261.070312 352.0625 C 263.804688 345.441406 267.398438 339.648438 271.855469 334.679688 Z M 271.855469 334.679688 " fill-opacity="1" fill-rule="nonzero"/></g><g clip-path="url(#5703a94c8e)"><path fill="#000000" d="M 258.984375 360.40625 C 258.832031 360.5625 258.582031 360.570312 258.421875 360.417969 C 258.265625 360.265625 258.261719 360.011719 258.414062 359.855469 C 262.734375 355.363281 266.871094 352.664062 270.828125 351.757812 C 271.039062 351.710938 271.253906 351.84375 271.300781 352.058594 C 271.328125 352.171875 271.300781 352.285156 271.238281 352.375 C 265.304688 361.535156 262.863281 368.847656 263.917969 374.3125 C 263.960938 374.527344 263.820312 374.738281 263.605469 374.777344 C 263.386719 374.820312 263.179688 374.679688 263.140625 374.464844 C 262.078125 368.964844 264.375 361.742188 270.03125 352.792969 C 266.519531 353.863281 262.835938 356.402344 258.984375 360.40625 Z M 258.984375 360.40625 " fill-opacity="1" fill-rule="nonzero"/></g><g clip-path="url(#3ddfdd43b4)"><path fill="#ffffff" d="M 312.933594 352.363281 C 312.09375 354.40625 311.332031 356.53125 310.65625 358.734375 C 314.574219 354.914062 318.34375 352.585938 321.957031 351.757812 C 322.171875 351.710938 322.382812 351.84375 322.433594 352.058594 C 322.457031 352.171875 322.433594 352.285156 322.371094 352.375 C 316.550781 361.355469 314.089844 368.5625 314.992188 373.992188 L 321.179688 373.980469 C 321.398438 373.980469 321.574219 374.15625 321.574219 374.375 C 321.574219 374.59375 321.398438 374.773438 321.179688 374.773438 L 314.6875 374.785156 C 314.667969 374.785156 314.652344 374.785156 314.632812 374.785156 L 307.035156 374.800781 C 307.015625 374.800781 306.992188 374.800781 306.972656 374.800781 L 298.175781 374.816406 C 298.167969 374.816406 298.164062 374.816406 298.15625 374.816406 L 289.03125 374.835938 C 289.023438 374.835938 289.015625 374.835938 289.007812 374.835938 L 279.117188 374.855469 L 271.835938 374.871094 L 262.554688 374.886719 C 262.542969 374.890625 262.527344 374.890625 262.515625 374.890625 L 253.636719 374.90625 C 253.417969 374.90625 253.238281 374.730469 253.238281 374.511719 C 253.238281 374.292969 253.417969 374.113281 253.636719 374.113281 L 262.15625 374.097656 C 262.535156 365.558594 261.8125 357.84375 259.984375 350.949219 C 258.136719 343.972656 255.148438 337.835938 251.03125 332.539062 C 250.945312 332.425781 250.921875 332.269531 250.984375 332.128906 C 251.078125 331.929688 251.3125 331.84375 251.511719 331.9375 C 258.460938 335.1875 263.664062 340.367188 267.121094 347.480469 C 268.011719 349.320312 268.789062 351.289062 269.449219 353.386719 C 268.785156 346.621094 267.890625 340.828125 266.769531 336.007812 C 265.402344 330.164062 263.703125 325.765625 261.667969 322.8125 C 261.578125 322.679688 261.574219 322.5 261.667969 322.363281 C 261.792969 322.179688 262.039062 322.136719 262.21875 322.257812 C 266.375 325.117188 269.941406 329.226562 272.914062 334.582031 C 275.660156 339.53125 277.902344 345.542969 279.636719 352.621094 C 281.753906 343.152344 284.6875 334.738281 288.441406 327.378906 C 292.425781 319.570312 297.332031 312.949219 303.167969 307.511719 C 303.328125 307.363281 303.578125 307.371094 303.726562 307.53125 C 303.84375 307.660156 303.863281 307.839844 303.789062 307.984375 C 299.378906 317.898438 296.078125 326.675781 293.886719 334.308594 C 292.023438 340.789062 290.96875 346.433594 290.714844 351.25 C 293.585938 343.472656 297.019531 336.921875 301.019531 331.597656 C 305.421875 325.730469 310.511719 321.351562 316.28125 318.460938 C 316.355469 318.425781 316.433594 318.414062 316.507812 318.421875 C 316.542969 318.425781 316.578125 318.4375 316.617188 318.449219 C 316.628906 318.457031 316.644531 318.464844 316.65625 318.472656 C 316.722656 318.507812 316.777344 318.566406 316.816406 318.636719 C 316.851562 318.710938 316.863281 318.785156 316.855469 318.859375 C 316.847656 318.898438 316.839844 318.933594 316.824219 318.972656 C 316.820312 318.984375 316.8125 319 316.804688 319.011719 C 316.800781 319.015625 316.800781 319.019531 316.800781 319.019531 C 311.609375 328.019531 307.90625 335.457031 305.691406 341.332031 C 303.75 346.480469 302.957031 350.398438 303.3125 353.089844 C 305.945312 348.757812 308.84375 345.074219 312.015625 342.050781 C 315.398438 338.820312 319.09375 336.335938 323.09375 334.59375 C 323.238281 334.519531 323.421875 334.535156 323.546875 334.652344 C 323.710938 334.796875 323.722656 335.046875 323.578125 335.210938 C 319.179688 340.113281 315.628906 345.832031 312.933594 352.363281 Z M 312.933594 352.363281 " fill-opacity="1" fill-rule="evenodd"/></g><g clip-path="url(#4b54914d06)"><path fill="#000000" d="M 253.636719 374.90625 C 253.417969 374.90625 253.238281 374.730469 253.238281 374.511719 C 253.238281 374.292969 253.417969 374.113281 253.636719 374.113281 L 321.179688 373.980469 C 321.398438 373.980469 321.574219 374.15625 321.574219 374.375 C 321.574219 374.59375 321.398438 374.773438 321.179688 374.773438 Z M 253.636719 374.90625 " fill-opacity="1" fill-rule="nonzero"/></g><g clip-path="url(#cb96e7cba8)"><path fill="#000000" d="M 272.234375 374.472656 C 272.234375 374.691406 272.054688 374.871094 271.835938 374.871094 C 271.617188 374.871094 271.441406 374.691406 271.441406 374.472656 C 271.472656 363.683594 269.792969 354.804688 266.40625 347.828125 C 263.28125 341.402344 258.703125 336.589844 252.667969 333.398438 C 256.332031 338.460938 259.027344 344.246094 260.753906 350.75 C 262.628906 357.820312 263.355469 365.742188 262.929688 374.511719 C 262.921875 374.730469 262.734375 374.898438 262.515625 374.890625 C 262.296875 374.878906 262.128906 374.691406 262.136719 374.472656 C 262.558594 365.785156 261.839844 357.945312 259.984375 350.949219 C 258.136719 343.972656 255.148438 337.835938 251.03125 332.539062 C 250.945312 332.425781 250.921875 332.269531 250.984375 332.128906 C 251.078125 331.929688 251.3125 331.84375 251.511719 331.9375 C 258.460938 335.1875 263.664062 340.367188 267.121094 347.480469 C 270.5625 354.566406 272.265625 363.5625 272.234375 374.472656 Z M 272.234375 374.472656 " fill-opacity="1" fill-rule="nonzero"/></g><g clip-path="url(#d4d1d33aeb)"><path fill="#000000" d="M 279.511719 374.460938 C 279.511719 374.679688 279.335938 374.855469 279.117188 374.855469 C 278.898438 374.855469 278.71875 374.679688 278.71875 374.460938 C 278.726562 371.410156 278.777344 368.21875 278.867188 364.875 C 278.957031 361.539062 279.085938 358.0625 279.257812 354.453125 C 277.484375 346.722656 275.140625 340.226562 272.222656 334.96875 C 269.710938 330.441406 266.773438 326.828125 263.410156 324.132812 C 265.027344 327.054688 266.402344 330.953125 267.542969 335.828125 C 268.921875 341.742188 269.957031 349.101562 270.644531 357.914062 C 270.660156 358.132812 270.496094 358.324219 270.277344 358.339844 C 270.058594 358.355469 269.867188 358.191406 269.851562 357.972656 C 269.167969 349.203125 268.136719 341.882812 266.769531 336.007812 C 265.402344 330.164062 263.703125 325.765625 261.667969 322.8125 C 261.578125 322.679688 261.574219 322.5 261.667969 322.363281 C 261.792969 322.179688 262.039062 322.136719 262.21875 322.257812 C 266.375 325.117188 269.941406 329.226562 272.914062 334.582031 C 275.878906 339.921875 278.253906 346.503906 280.042969 354.324219 C 280.050781 354.359375 280.054688 354.394531 280.050781 354.433594 C 279.878906 358.082031 279.75 361.570312 279.660156 364.894531 C 279.570312 368.238281 279.519531 371.425781 279.511719 374.460938 Z M 279.511719 374.460938 " fill-opacity="1" fill-rule="nonzero"/></g><g clip-path="url(#a83ee2ab37)"><path fill="#000000" d="M 280.042969 354.496094 C 280 354.710938 279.789062 354.847656 279.574219 354.804688 C 279.359375 354.757812 279.222656 354.546875 279.265625 354.332031 C 281.402344 344.164062 284.460938 335.179688 288.441406 327.378906 C 292.425781 319.570312 297.332031 312.949219 303.167969 307.511719 C 303.328125 307.363281 303.578125 307.371094 303.726562 307.53125 C 303.84375 307.660156 303.863281 307.839844 303.789062 307.984375 C 299.378906 317.898438 296.078125 326.675781 293.886719 334.308594 C 292.023438 340.789062 290.96875 346.433594 290.714844 351.25 C 293.585938 343.472656 297.019531 336.921875 301.019531 331.597656 C 305.421875 325.730469 310.511719 321.351562 316.28125 318.460938 C 316.480469 318.363281 316.714844 318.441406 316.816406 318.636719 C 316.914062 318.832031 316.832031 319.070312 316.636719 319.167969 C 310.976562 322.003906 305.980469 326.304688 301.652344 332.070312 C 297.3125 337.851562 293.640625 345.109375 290.632812 353.84375 L 290.632812 353.839844 C 290.582031 353.996094 290.433594 354.109375 290.261719 354.109375 C 290.042969 354.109375 289.863281 353.933594 289.863281 353.714844 C 289.828125 348.316406 290.914062 341.773438 293.121094 334.089844 C 295.183594 326.898438 298.230469 318.699219 302.261719 309.484375 C 297.128906 314.582031 292.757812 320.667969 289.148438 327.742188 C 285.199219 335.480469 282.164062 344.398438 280.042969 354.496094 Z M 280.042969 354.496094 " fill-opacity="1" fill-rule="nonzero"/></g><g clip-path="url(#58142b7ab5)"><path fill="#000000" d="M 289.867188 353.644531 C 289.90625 353.429688 290.109375 353.285156 290.328125 353.320312 C 290.542969 353.359375 290.6875 353.566406 290.648438 353.78125 C 289.957031 357.738281 289.507812 361.4375 289.304688 364.871094 C 289.097656 368.308594 289.132812 371.484375 289.414062 374.402344 C 289.433594 374.621094 289.273438 374.8125 289.054688 374.835938 C 288.839844 374.855469 288.644531 374.695312 288.625 374.476562 C 288.339844 371.515625 288.304688 368.296875 288.511719 364.824219 C 288.71875 361.351562 289.171875 357.625 289.867188 353.644531 Z M 289.867188 353.644531 " fill-opacity="1" fill-rule="nonzero"/></g><g clip-path="url(#411df58616)"><path fill="#000000" d="M 316.117188 318.617188 C 316.226562 318.429688 316.46875 318.363281 316.65625 318.472656 C 316.847656 318.582031 316.914062 318.824219 316.804688 319.011719 C 311.613281 328.015625 307.910156 335.453125 305.691406 341.332031 C 303.75 346.480469 302.957031 350.398438 303.3125 353.089844 C 305.945312 348.757812 308.84375 345.074219 312.015625 342.050781 C 315.40625 338.8125 319.109375 336.324219 323.125 334.582031 C 323.324219 334.496094 323.558594 334.589844 323.644531 334.789062 C 323.730469 334.988281 323.640625 335.222656 323.4375 335.308594 C 319.515625 337.011719 315.890625 339.449219 312.5625 342.625 C 309.230469 345.804688 306.199219 349.722656 303.46875 354.378906 C 303.417969 354.464844 303.335938 354.53125 303.230469 354.558594 C 303.019531 354.617188 302.800781 354.492188 302.746094 354.28125 C 301.960938 351.433594 302.699219 347.023438 304.949219 341.050781 C 307.179688 335.140625 310.902344 327.660156 316.117188 318.617188 Z M 316.117188 318.617188 " fill-opacity="1" fill-rule="nonzero"/></g><g clip-path="url(#ab9c52ea6b)"><path fill="#000000" d="M 302.765625 354.011719 C 302.859375 353.8125 303.09375 353.726562 303.292969 353.816406 C 303.492188 353.910156 303.578125 354.144531 303.488281 354.34375 C 301.765625 358.0625 300.492188 361.59375 299.671875 364.9375 C 298.851562 368.28125 298.484375 371.4375 298.5625 374.410156 C 298.566406 374.628906 298.394531 374.8125 298.175781 374.816406 C 297.957031 374.824219 297.773438 374.648438 297.769531 374.429688 C 297.6875 371.386719 298.066406 368.160156 298.902344 364.753906 C 299.734375 361.351562 301.023438 357.769531 302.765625 354.011719 Z M 302.765625 354.011719 " fill-opacity="1" fill-rule="nonzero"/></g><g clip-path="url(#d78b1e6236)"><path fill="#000000" d="M 322.988281 334.679688 C 323.132812 334.515625 323.382812 334.503906 323.546875 334.652344 C 323.710938 334.796875 323.722656 335.046875 323.578125 335.210938 C 319.179688 340.113281 315.628906 345.832031 312.933594 352.363281 C 310.238281 358.902344 308.390625 366.265625 307.398438 374.449219 C 307.371094 374.667969 307.171875 374.824219 306.957031 374.796875 C 306.738281 374.773438 306.582031 374.574219 306.609375 374.355469 C 307.609375 366.105469 309.472656 358.671875 312.203125 352.0625 C 314.933594 345.441406 318.527344 339.648438 322.988281 334.679688 Z M 322.988281 334.679688 " fill-opacity="1" fill-rule="nonzero"/></g><g clip-path="url(#be2760077c)"><path fill="#000000" d="M 310.113281 360.40625 C 309.960938 360.5625 309.710938 360.570312 309.554688 360.417969 C 309.394531 360.265625 309.390625 360.011719 309.542969 359.855469 C 313.863281 355.363281 318 352.664062 321.957031 351.757812 C 322.171875 351.710938 322.382812 351.84375 322.433594 352.058594 C 322.457031 352.171875 322.433594 352.285156 322.371094 352.375 C 316.433594 361.535156 313.992188 368.847656 315.050781 374.3125 C 315.089844 374.527344 314.949219 374.738281 314.734375 374.777344 C 314.519531 374.820312 314.3125 374.679688 314.269531 374.464844 C 313.207031 368.964844 315.503906 361.742188 321.160156 352.792969 C 317.648438 353.863281 313.96875 356.402344 310.113281 360.40625 Z M 310.113281 360.40625 " fill-opacity="1" fill-rule="nonzero"/></g><g clip-path="url(#8bb87c3a28)"><path fill="#ffffff" d="M 364.066406 352.363281 C 363.222656 354.40625 362.460938 356.53125 361.785156 358.734375 C 365.707031 354.914062 369.472656 352.585938 373.085938 351.757812 C 373.300781 351.710938 373.515625 351.84375 373.5625 352.058594 C 373.589844 352.171875 373.5625 352.285156 373.5 352.375 C 367.679688 361.355469 365.222656 368.5625 366.121094 373.992188 L 372.308594 373.980469 C 372.527344 373.980469 372.707031 374.15625 372.707031 374.375 C 372.707031 374.59375 372.527344 374.773438 372.308594 374.773438 L 365.816406 374.785156 C 365.800781 374.785156 365.78125 374.785156 365.761719 374.785156 L 358.164062 374.800781 C 358.144531 374.800781 358.125 374.800781 358.101562 374.800781 L 349.308594 374.816406 C 349.304688 374.816406 349.304688 374.816406 349.304688 374.816406 C 349.300781 374.816406 349.292969 374.816406 349.289062 374.816406 L 340.164062 374.835938 C 340.152344 374.835938 340.144531 374.835938 340.136719 374.835938 L 330.246094 374.855469 L 322.96875 374.871094 L 313.683594 374.886719 C 313.671875 374.890625 313.660156 374.890625 313.648438 374.890625 L 304.765625 374.90625 C 304.546875 374.90625 304.371094 374.730469 304.371094 374.511719 C 304.371094 374.292969 304.546875 374.113281 304.765625 374.113281 L 313.285156 374.097656 C 313.667969 365.558594 312.945312 357.84375 311.117188 350.949219 C 309.265625 343.972656 306.28125 337.835938 302.160156 332.539062 C 302.074219 332.425781 302.050781 332.269531 302.117188 332.128906 C 302.207031 331.929688 302.445312 331.84375 302.644531 331.9375 C 309.589844 335.1875 314.792969 340.367188 318.25 347.480469 C 319.144531 349.320312 319.917969 351.289062 320.578125 353.386719 C 319.917969 346.621094 319.023438 340.828125 317.898438 336.007812 C 316.535156 330.164062 314.835938 325.765625 312.800781 322.8125 C 312.710938 322.679688 312.703125 322.5 312.800781 322.363281 C 312.921875 322.179688 313.167969 322.136719 313.347656 322.257812 C 317.507812 325.117188 321.074219 329.226562 324.046875 334.582031 C 326.789062 339.53125 329.03125 345.542969 330.769531 352.621094 C 332.882812 343.152344 335.816406 334.738281 339.570312 327.378906 C 343.554688 319.570312 348.464844 312.949219 354.296875 307.511719 C 354.457031 307.363281 354.707031 307.371094 354.859375 307.53125 C 354.972656 307.660156 354.996094 307.839844 354.921875 307.984375 C 350.507812 317.898438 347.207031 326.675781 345.015625 334.308594 C 343.15625 340.789062 342.097656 346.433594 341.84375 351.25 C 344.714844 343.472656 348.148438 336.921875 352.148438 331.597656 C 356.554688 325.730469 361.640625 321.351562 367.414062 318.460938 C 367.484375 318.425781 367.5625 318.414062 367.636719 318.421875 C 367.671875 318.425781 367.710938 318.4375 367.746094 318.449219 C 367.761719 318.457031 367.773438 318.464844 367.789062 318.472656 C 367.851562 318.507812 367.910156 318.566406 367.945312 318.636719 C 367.980469 318.710938 367.992188 318.785156 367.984375 318.859375 C 367.980469 318.898438 367.96875 318.933594 367.953125 318.972656 C 367.949219 318.984375 367.941406 319 367.933594 319.011719 C 367.933594 319.015625 367.929688 319.019531 367.929688 319.019531 C 362.742188 328.019531 359.039062 335.457031 356.824219 341.332031 C 354.882812 346.480469 354.089844 350.398438 354.445312 353.089844 C 357.074219 348.757812 359.976562 345.074219 363.144531 342.050781 C 366.527344 338.820312 370.222656 336.335938 374.226562 334.59375 C 374.367188 334.519531 374.550781 334.535156 374.679688 334.652344 C 374.839844 334.796875 374.855469 335.046875 374.707031 335.210938 C 370.308594 340.113281 366.761719 345.832031 364.066406 352.363281 Z M 364.066406 352.363281 " fill-opacity="1" fill-rule="evenodd"/></g><g clip-path="url(#056cacd3fe)"><path fill="#000000" d="M 304.765625 374.90625 C 304.546875 374.90625 304.371094 374.730469 304.371094 374.511719 C 304.371094 374.292969 304.546875 374.113281 304.765625 374.113281 L 372.308594 373.980469 C 372.527344 373.980469 372.707031 374.15625 372.707031 374.375 C 372.707031 374.59375 372.527344 374.773438 372.308594 374.773438 Z M 304.765625 374.90625 " fill-opacity="1" fill-rule="nonzero"/></g><g clip-path="url(#1446a1e9c8)"><path fill="#000000" d="M 323.363281 374.472656 C 323.363281 374.691406 323.1875 374.871094 322.96875 374.871094 C 322.75 374.871094 322.570312 374.691406 322.570312 374.472656 C 322.601562 363.683594 320.925781 354.804688 317.535156 347.828125 C 314.414062 341.402344 309.832031 336.589844 303.796875 333.398438 C 307.464844 338.460938 310.160156 344.246094 311.882812 350.75 C 313.757812 357.820312 314.484375 365.742188 314.0625 374.511719 C 314.050781 374.730469 313.863281 374.898438 313.644531 374.890625 C 313.425781 374.878906 313.257812 374.691406 313.269531 374.472656 C 313.6875 365.785156 312.972656 357.945312 311.117188 350.949219 C 309.265625 343.972656 306.28125 337.835938 302.160156 332.539062 C 302.074219 332.425781 302.050781 332.269531 302.117188 332.128906 C 302.207031 331.929688 302.445312 331.84375 302.644531 331.9375 C 309.589844 335.1875 314.792969 340.367188 318.25 347.480469 C 321.691406 354.566406 323.394531 363.5625 323.363281 374.472656 Z M 323.363281 374.472656 " fill-opacity="1" fill-rule="nonzero"/></g><g clip-path="url(#fad09546ec)"><path fill="#000000" d="M 330.644531 374.460938 C 330.644531 374.679688 330.464844 374.855469 330.246094 374.855469 C 330.027344 374.855469 329.851562 374.679688 329.851562 374.460938 C 329.859375 371.410156 329.90625 368.21875 329.996094 364.875 C 330.085938 361.539062 330.21875 358.0625 330.386719 354.453125 C 328.617188 346.722656 326.269531 340.226562 323.351562 334.96875 C 320.839844 330.441406 317.902344 326.828125 314.542969 324.132812 C 316.15625 327.054688 317.535156 330.953125 318.671875 335.828125 C 320.050781 341.742188 321.085938 349.101562 321.773438 357.914062 C 321.789062 358.132812 321.625 358.324219 321.40625 358.339844 C 321.1875 358.355469 321 358.191406 320.980469 357.972656 C 320.296875 349.203125 319.269531 341.882812 317.898438 336.007812 C 316.535156 330.164062 314.835938 325.765625 312.800781 322.8125 C 312.710938 322.679688 312.703125 322.5 312.800781 322.363281 C 312.921875 322.179688 313.167969 322.136719 313.347656 322.257812 C 317.507812 325.117188 321.074219 329.226562 324.046875 334.582031 C 327.007812 339.921875 329.382812 346.503906 331.171875 354.324219 C 331.179688 354.359375 331.183594 354.394531 331.183594 354.433594 C 331.011719 358.082031 330.878906 361.570312 330.789062 364.894531 C 330.699219 368.238281 330.652344 371.425781 330.644531 374.460938 Z M 330.644531 374.460938 " fill-opacity="1" fill-rule="nonzero"/></g><g clip-path="url(#b42e05dcb6)"><path fill="#000000" d="M 331.175781 354.496094 C 331.128906 354.710938 330.917969 354.847656 330.707031 354.804688 C 330.492188 354.757812 330.351562 354.546875 330.398438 354.332031 C 332.535156 344.164062 335.59375 335.179688 339.570312 327.378906 C 343.554688 319.570312 348.464844 312.949219 354.296875 307.511719 C 354.457031 307.363281 354.707031 307.371094 354.859375 307.53125 C 354.972656 307.660156 354.996094 307.839844 354.921875 307.984375 C 350.507812 317.898438 347.207031 326.675781 345.015625 334.308594 C 343.15625 340.789062 342.097656 346.433594 341.84375 351.25 C 344.714844 343.472656 348.148438 336.921875 352.148438 331.597656 C 356.554688 325.730469 361.640625 321.351562 367.414062 318.460938 C 367.609375 318.363281 367.847656 318.441406 367.945312 318.636719 C 368.042969 318.832031 367.964844 319.070312 367.769531 319.167969 C 362.105469 322.003906 357.113281 326.304688 352.78125 332.070312 C 348.441406 337.851562 344.769531 345.109375 341.765625 353.84375 L 341.765625 353.839844 C 341.710938 353.996094 341.5625 354.109375 341.390625 354.109375 C 341.171875 354.109375 340.992188 353.933594 340.992188 353.714844 C 340.960938 348.316406 342.046875 341.773438 344.25 334.089844 C 346.316406 326.898438 349.363281 318.699219 353.390625 309.484375 C 348.257812 314.582031 343.886719 320.667969 340.277344 327.742188 C 336.332031 335.480469 333.296875 344.398438 331.175781 354.496094 Z M 331.175781 354.496094 " fill-opacity="1" fill-rule="nonzero"/></g><g clip-path="url(#7273b5274e)"><path fill="#000000" d="M 340.996094 353.644531 C 341.035156 353.429688 341.242188 353.285156 341.457031 353.320312 C 341.671875 353.359375 341.816406 353.566406 341.78125 353.78125 C 341.089844 357.738281 340.640625 361.4375 340.433594 364.871094 C 340.226562 368.308594 340.265625 371.484375 340.542969 374.402344 C 340.5625 374.621094 340.402344 374.8125 340.1875 374.835938 C 339.96875 374.855469 339.773438 374.695312 339.753906 374.476562 C 339.472656 371.515625 339.433594 368.296875 339.640625 364.824219 C 339.847656 361.351562 340.300781 357.625 340.996094 353.644531 Z M 340.996094 353.644531 " fill-opacity="1" fill-rule="nonzero"/></g><g clip-path="url(#a0774fea6f)"><path fill="#000000" d="M 367.246094 318.617188 C 367.355469 318.429688 367.597656 318.363281 367.789062 318.472656 C 367.976562 318.582031 368.042969 318.824219 367.933594 319.011719 C 362.742188 328.015625 359.039062 335.453125 356.824219 341.332031 C 354.882812 346.480469 354.089844 350.398438 354.445312 353.089844 C 357.074219 348.757812 359.976562 345.074219 363.144531 342.050781 C 366.539062 338.8125 370.242188 336.324219 374.253906 334.582031 C 374.457031 334.496094 374.6875 334.589844 374.777344 334.789062 C 374.863281 334.988281 374.769531 335.222656 374.570312 335.308594 C 370.644531 337.011719 367.019531 339.449219 363.691406 342.625 C 360.359375 345.804688 357.328125 349.722656 354.597656 354.378906 C 354.546875 354.464844 354.464844 354.53125 354.363281 354.558594 C 354.152344 354.617188 353.933594 354.492188 353.875 354.28125 C 353.09375 351.433594 353.828125 347.023438 356.082031 341.050781 C 358.308594 335.140625 362.03125 327.660156 367.246094 318.617188 Z M 367.246094 318.617188 " fill-opacity="1" fill-rule="nonzero"/></g><g clip-path="url(#9c98a0bf30)"><path fill="#000000" d="M 353.898438 354.011719 C 353.988281 353.8125 354.222656 353.726562 354.421875 353.816406 C 354.621094 353.910156 354.710938 354.144531 354.617188 354.34375 C 352.894531 358.0625 351.621094 361.59375 350.800781 364.9375 C 349.984375 368.28125 349.613281 371.4375 349.691406 374.410156 C 349.699219 374.628906 349.523438 374.8125 349.304688 374.816406 C 349.085938 374.824219 348.90625 374.648438 348.898438 374.429688 C 348.820312 371.386719 349.195312 368.160156 350.03125 364.753906 C 350.863281 361.351562 352.152344 357.769531 353.898438 354.011719 Z M 353.898438 354.011719 " fill-opacity="1" fill-rule="nonzero"/></g><g clip-path="url(#ee9778f37e)"><path fill="#000000" d="M 374.117188 334.679688 C 374.265625 334.515625 374.515625 334.503906 374.679688 334.652344 C 374.839844 334.796875 374.855469 335.046875 374.707031 335.210938 C 370.308594 340.113281 366.761719 345.832031 364.066406 352.363281 C 361.367188 358.902344 359.519531 366.265625 358.527344 374.449219 C 358.5 374.667969 358.304688 374.824219 358.085938 374.796875 C 357.867188 374.773438 357.710938 374.574219 357.738281 374.355469 C 358.738281 366.105469 360.605469 358.671875 363.332031 352.0625 C 366.0625 345.441406 369.660156 339.648438 374.117188 334.679688 Z M 374.117188 334.679688 " fill-opacity="1" fill-rule="nonzero"/></g><g clip-path="url(#5fcbc25b8a)"><path fill="#000000" d="M 361.246094 360.40625 C 361.09375 360.5625 360.839844 360.570312 360.683594 360.417969 C 360.527344 360.265625 360.519531 360.011719 360.671875 359.855469 C 364.992188 355.363281 369.132812 352.664062 373.085938 351.757812 C 373.300781 351.710938 373.515625 351.84375 373.5625 352.058594 C 373.589844 352.171875 373.5625 352.285156 373.5 352.375 C 367.5625 361.535156 365.125 368.847656 366.179688 374.3125 C 366.222656 374.527344 366.078125 374.738281 365.863281 374.777344 C 365.648438 374.820312 365.441406 374.679688 365.398438 374.464844 C 364.335938 368.964844 366.632812 361.742188 372.289062 352.792969 C 368.78125 353.863281 365.097656 356.402344 361.246094 360.40625 Z M 361.246094 360.40625 " fill-opacity="1" fill-rule="nonzero"/></g></svg>