<svg xmlns="http://www.w3.org/2000/svg" xmlns:xlink="http://www.w3.org/1999/xlink" width="500" zoomAndPan="magnify" viewBox="0 0 375 374.999991" height="500" preserveAspectRatio="xMidYMid meet" version="1.0"><defs><clipPath id="6f5854966b"><path d="M 0 74.316406 L 375 74.316406 L 375 300.816406 L 0 300.816406 Z M 0 74.316406 " clip-rule="nonzero"/></clipPath></defs><path fill="#ffffff" d="M 34.957031 81.664062 C 34.957031 81.664062 31.289062 80.3125 32.710938 90.433594 L 34.957031 103.097656 L 32.636719 107.972656 C 32.636719 107.972656 32.335938 116.890625 22.597656 122.210938 L 8.441406 132.328125 C 8.441406 132.328125 -0.171875 139.449219 4.472656 146.121094 C 4.472656 146.121094 13.984375 162.757812 24.621094 158.414062 L 32.9375 154.515625 C 32.9375 154.515625 46.042969 162.386719 67.09375 156.015625 C 67.09375 156.015625 72.484375 162.308594 77.503906 171.605469 L 93.382812 206.082031 C 93.382812 206.082031 96.15625 216.347656 102.523438 214.476562 C 102.523438 214.476562 105.742188 235.238281 109.9375 252.925781 L 110.910156 263.191406 C 110.910156 263.191406 103.34375 273.835938 104.46875 283.054688 C 104.46875 283.054688 95.707031 297.671875 106.265625 297.519531 C 106.265625 297.519531 123.496094 299.167969 124.394531 295.121094 L 129.488281 254.722656 L 136.601562 243.855469 L 140.421875 264.316406 L 142.144531 283.878906 C 142.144531 283.878906 133.15625 286.203125 132.484375 294.371094 C 132.484375 294.371094 129.113281 298.570312 139.75 298.121094 C 139.75 298.121094 153.832031 296.621094 154.953125 294.671875 L 158.101562 265.214844 L 168.738281 231.488281 C 168.738281 231.488281 194.953125 235.609375 241.242188 213.277344 L 266.636719 205.929688 C 266.636719 205.929688 270.304688 211.175781 269.78125 224.445312 L 264.015625 269.640625 L 263.191406 278.183594 L 256.449219 289.125 C 256.449219 289.125 252.929688 295.871094 260.34375 296.097656 C 260.34375 296.097656 280.042969 297.820312 278.546875 291.222656 L 278.546875 283.503906 C 278.621094 283.503906 284.089844 280.429688 283.863281 273.460938 C 283.863281 273.460938 282.140625 251.425781 299.144531 239.957031 C 299.144531 239.957031 301.542969 254.574219 296.148438 269.414062 C 296.148438 269.414062 294.125 275.183594 296.296875 281.332031 C 296.296875 281.332031 282.214844 298.644531 299.519531 296.921875 C 299.519531 296.921875 322.738281 298.496094 319.441406 288.601562 C 319.441406 288.601562 315.699219 270.613281 316.820312 257.871094 L 325.511719 226.46875 C 325.511719 226.46875 326.035156 212.375 321.617188 203.382812 L 326.707031 166.808594 C 326.707031 166.808594 338.167969 127.15625 327.757812 115.992188 C 327.757812 115.992188 316.074219 99.726562 274.726562 100.625 L 228.359375 103.25 L 185.515625 104.746094 C 185.515625 104.746094 140.496094 108.644531 126.789062 104.222656 L 86.71875 100.699219 L 91.511719 85.410156 C 91.511719 85.410156 95.480469 74.542969 89.339844 76.191406 L 66.269531 94.628906 C 66.269531 94.628906 55.558594 94.554688 47.839844 95.605469 C 47.839844 95.605469 37.503906 82.414062 35.035156 81.511719 Z M 34.957031 81.664062 " fill-opacity="1" fill-rule="nonzero"/><path fill="#ffffff" d="M 332.925781 119.289062 C 332.925781 119.289062 355.621094 131.207031 356.96875 156.6875 L 358.242188 190.265625 L 355.472656 190.941406 C 355.472656 190.941406 350.828125 143.574219 333.824219 129.183594 L 332.925781 119.214844 Z M 332.925781 119.289062 " fill-opacity="1" fill-rule="nonzero"/><path fill="#ffffff" d="M 356.070312 192.738281 C 356.070312 192.738281 354.125 210.726562 360.339844 218.972656 C 360.339844 218.972656 370.304688 228.714844 371.203125 228.714844 L 369.03125 211.175781 C 369.03125 211.175781 375.246094 202.183594 366.558594 197.085938 C 366.558594 197.085938 358.242188 189.742188 355.996094 192.738281 Z M 356.070312 192.738281 " fill-opacity="1" fill-rule="nonzero"/><g clip-path="url(#6f5854966b)"><path fill="#000000" d="M 263.640625 292.347656 Z M 91.210938 115.617188 C 84.246094 116.441406 76.753906 116.441406 70.089844 114.714844 C 73.234375 121.910156 84.695312 121.988281 90.6875 118.089844 C 91.960938 117.265625 94.058594 115.316406 91.136719 115.617188 Z M 71.734375 107.746094 C 73.007812 110.667969 77.203125 112.617188 80.125 110.96875 C 79.226562 109.84375 76.15625 109.320312 74.957031 108.496094 C 74.132812 108.496094 70.386719 104.746094 71.734375 107.746094 Z M 42.222656 119.511719 C 39.828125 122.4375 42.074219 122.4375 43.796875 120.1875 C 44.320312 126.257812 53.085938 122.660156 52.710938 118.015625 C 53.683594 118.164062 55.40625 118.539062 55.855469 117.339844 C 53.835938 113.816406 44.546875 117.039062 42.222656 119.4375 Z M 13.6875 144.773438 C 13.085938 144.246094 12.1875 142.746094 11.363281 142.523438 C 10.691406 142.746094 11.140625 144.921875 11.4375 145.222656 C 12.5625 147.46875 16.757812 147.996094 13.6875 144.773438 Z M 374.722656 225.792969 C 374.945312 228.042969 372.699219 232.238281 370.304688 232.015625 C 368.65625 231.113281 367.757812 227.589844 367.832031 225.71875 C 368.054688 219.496094 363.261719 212.226562 367.457031 206.378906 C 370.304688 201.734375 361.914062 198.4375 359.441406 195.289062 C 359.140625 194.988281 358.394531 194.164062 358.167969 193.789062 C 358.765625 200.011719 359.140625 205.929688 359.816406 212.152344 C 359.890625 215.300781 362.511719 218.074219 362.585938 220.996094 C 352.027344 220.320312 351.351562 205.03125 353.148438 196.863281 C 351.128906 193.5625 351.128906 191.316406 350.601562 188.09375 C 347.980469 171.152344 345.660156 153.539062 337.046875 138.402344 C 337.046875 138.402344 336.519531 137.578125 336.519531 137.578125 C 333.601562 157.886719 326.109375 177.074219 324.6875 197.386719 C 324.6875 200.835938 325.734375 204.28125 326.410156 207.730469 C 331.800781 217.546875 329.40625 229.839844 325.660156 239.734375 C 324.535156 242.582031 324.3125 242.957031 323.414062 245.28125 C 322.964844 247.453125 323.039062 248.878906 322.4375 250.527344 C 318.695312 265.742188 318.019531 268.664062 322.664062 283.503906 C 325.210938 302.09375 319.742188 298.417969 305.0625 300.367188 C 302.890625 300.59375 300.867188 300.367188 298.09375 299.246094 C 297.347656 299.617188 296.449219 299.917969 295.546875 299.84375 C 282.816406 300.894531 285.8125 290.851562 291.355469 283.878906 C 291.953125 282.90625 292.851562 282.082031 292.253906 280.882812 C 287.160156 268.890625 300.792969 257.195312 296.746094 244.832031 C 287.308594 255.625 287.382812 263.492188 287.234375 277.132812 C 287.085938 280.882812 284.835938 284.402344 281.46875 285.902344 C 281.167969 286.054688 281.316406 286.128906 281.46875 286.277344 C 281.917969 290.023438 282.515625 295.421875 278.320312 297.296875 C 273.003906 299.617188 250.679688 302.691406 253.453125 292.5 C 252.480469 288.601562 255.550781 284.554688 258.023438 282.15625 C 258.921875 281.105469 260.195312 279.90625 259.59375 278.257812 C 261.167969 257.871094 269.257812 237.484375 265.738281 216.875 C 265.363281 214.550781 265.210938 212.152344 265.136719 209.753906 C 233.378906 216.5 203.867188 238.085938 170.011719 234.636719 C 169.558594 238.460938 168.660156 240.183594 166.9375 243.929688 C 163.71875 249.550781 161.921875 255.847656 161.246094 262.292969 C 160.496094 271.886719 159.074219 281.929688 158.625 291.449219 C 158.699219 293.546875 155.253906 302.917969 153.007812 298.195312 C 150.308594 299.542969 125.140625 299.917969 137.652344 296.171875 C 143.570312 294.746094 146.117188 294.523438 152.183594 295.273438 C 151.507812 288.976562 153.230469 282.828125 153.605469 276.460938 C 155.328125 264.316406 156.976562 242.957031 166.113281 234.488281 C 158.398438 233.960938 151.210938 233.738281 143.792969 231.113281 C 142.445312 235.535156 141.996094 240.78125 139 244.378906 C 139.375 246.03125 139.75 247.753906 139.75 249.476562 C 140.273438 254.722656 142.671875 259.894531 143.792969 265.214844 C 142.96875 271.363281 145.667969 277.660156 143.71875 283.730469 C 150.683594 284.703125 137.800781 287.402344 136.453125 291 C 135.929688 292.421875 134.207031 297.96875 132.257812 297.070312 C 131.210938 297.671875 130.609375 295.121094 130.761719 294.222656 C 130.609375 289.125 134.503906 285.078125 139.074219 283.503906 C 142.296875 278.40625 138.175781 271.511719 139.148438 265.890625 C 137.652344 260.792969 135.480469 255.472656 134.65625 250.152344 C 131.359375 258.171875 132.707031 268.8125 130.011719 276.910156 C 129.710938 279.308594 128.363281 281.105469 128.0625 283.878906 C 126.339844 289.125 129.785156 296.546875 124.242188 299.992188 C 119.523438 301.941406 114.132812 299.769531 109.414062 300.667969 C 107.464844 300.59375 106.265625 300.96875 104.394531 299.695312 C 94.882812 300.292969 95.40625 289.351562 101.097656 284.703125 C 100.273438 282.082031 100.125 279.308594 100.796875 276.835938 C 101.324219 271.8125 105.441406 265.214844 107.316406 260.121094 C 107.765625 252.027344 104.917969 243.554688 102.523438 235.835938 C 101.25 230.289062 100.796875 224.59375 99.976562 218.898438 C 97.726562 217.921875 95.707031 216.199219 94.433594 214.175781 C 82.523438 197.535156 83.046875 172.503906 65.070312 160.210938 C 57.804688 162.683594 50.386719 163.285156 42.824219 161.636719 C 39.226562 160.960938 36.382812 158.636719 32.859375 157.738281 C 31.8125 158.335938 28.964844 159.535156 28.140625 159.910156 C 24.171875 161.636719 17.957031 163.285156 13.835938 160.511719 C 7.992188 157.289062 1.625 150.09375 0.203125 142.972656 C -0.546875 130.605469 13.386719 126.933594 20.578125 119.886719 C 22.523438 118.464844 24.996094 116.890625 26.71875 115.539062 C 30.613281 112.019531 28.589844 105.796875 32.113281 102.050781 C 32.113281 102.050781 32.113281 101.976562 32.113281 101.898438 C 32.636719 96.277344 30.6875 90.65625 30.390625 85.109375 C 31.886719 70.269531 44.171875 88.109375 47.691406 92.457031 C 47.691406 92.457031 48.441406 93.429688 48.441406 93.429688 C 54.207031 91.929688 58.554688 92.15625 64.84375 93.582031 C 65.96875 92.679688 67.015625 91.929688 68.140625 91.257812 C 75.40625 87.132812 81.699219 80.390625 88.214844 75.144531 C 100.273438 70.121094 92.261719 89.308594 90.988281 94.105469 C 90.835938 94.480469 90.535156 95.527344 90.3125 95.902344 C 90.011719 96.578125 89.414062 97.628906 88.738281 98.601562 C 94.433594 98.226562 97.578125 98.078125 101.773438 98.378906 C 108.664062 98.378906 120.5 99.875 128.0625 101.300781 C 132.78125 102.648438 137.726562 104.222656 142.519531 104.375 C 154.28125 105.121094 166.414062 102.648438 178.097656 101.300781 C 191.582031 99.726562 207.164062 100.101562 220.421875 99.5 C 236.597656 99.652344 255.773438 98.828125 272.179688 97.554688 C 293.375 95.828125 316.972656 99.125 332.101562 115.539062 C 360.339844 125.808594 360.863281 157.960938 360.492188 183.144531 C 360.492188 184.496094 360.566406 185.695312 360.265625 187.195312 C 361.238281 188.242188 362.511719 188.992188 363.335938 190.117188 C 369.402344 195.886719 378.242188 201.285156 372.550781 210.804688 C 372.175781 213.875 374.421875 219.871094 374.796875 223.917969 C 374.796875 224.96875 374.796875 225.644531 374.796875 225.644531 Z M 70.238281 94.78125 C 70.238281 94.78125 70.164062 94.78125 70.089844 94.855469 C 74.28125 96.429688 77.804688 99.050781 82.296875 99.726562 C 82.972656 99.277344 84.695312 99.125 85.816406 99.050781 C 85.816406 96.804688 86.191406 94.554688 86.867188 92.90625 C 87.242188 91.105469 91.0625 81.511719 90.460938 78.816406 C 83.496094 83.613281 77.726562 90.65625 70.3125 94.855469 Z M 35.933594 97.851562 C 38.179688 96.203125 41.101562 95.078125 43.871094 95.453125 C 44.023438 95.453125 44.097656 95.304688 44.246094 95.230469 C 42.300781 93.207031 37.578125 85.1875 34.210938 83.6875 C 34.132812 83.835938 34.058594 84.210938 33.984375 84.4375 C 33.683594 88.785156 35.558594 93.355469 35.855469 97.851562 Z M 293.824219 236.734375 C 292.777344 234.335938 290.980469 231.789062 289.632812 229.390625 C 285.285156 221.144531 278.019531 215 273.453125 206.832031 C 272.027344 207.503906 270.382812 208.105469 268.957031 208.628906 C 270.382812 210.878906 271.503906 213.425781 271.878906 215.972656 C 273.675781 229.691406 271.355469 244.230469 269.332031 257.796875 C 268.285156 264.242188 267.234375 270.914062 266.1875 277.207031 C 266.335938 277.507812 266.484375 278.035156 266.484375 278.484375 C 277.273438 279.007812 264.089844 285.601562 261.84375 288.300781 C 260.195312 289.949219 257.574219 291.300781 255.925781 293.097656 C 256.074219 293.699219 256.375 293.847656 256.597656 293.398438 C 258.472656 293.023438 261.691406 292.347656 263.566406 292.273438 C 267.609375 291.449219 271.65625 291.824219 275.773438 293.023438 C 274.726562 291.523438 274.277344 290.023438 274.125 288.300781 C 273.003906 279.15625 278.996094 281.855469 279.894531 277.132812 C 280.644531 260.570312 282.214844 253.449219 291.804688 239.882812 C 292.253906 238.984375 292.550781 238.234375 293.152344 237.410156 C 293.375 237.183594 293.527344 236.886719 293.75 236.660156 Z M 328.207031 124.234375 C 325.734375 120.039062 320.042969 114.941406 314.949219 112.019531 C 289.257812 98.601562 259.445312 106.246094 231.730469 106.621094 C 219.371094 107.144531 203.042969 106.847656 187.6875 107.671875 C 167.761719 108.421875 146.640625 115.015625 127.316406 107.597656 C 119.300781 106.171875 109.863281 105.496094 101.398438 105.046875 C 96.980469 104.898438 92.558594 104.074219 88.140625 102.875 C 90.460938 104.972656 94.582031 108.644531 93.832031 111.867188 C 89.714844 111.644531 85.367188 107.746094 81.398438 106.246094 C 78.703125 105.199219 75.929688 104.074219 73.007812 103.546875 C 69.488281 103.175781 66.867188 102.574219 71.511719 100.101562 C 69.9375 99.351562 68.367188 98.453125 66.792969 97.402344 C 58.402344 100.027344 51.210938 98.601562 42.972656 98.976562 C 40.949219 100.402344 39.378906 102.347656 37.878906 104.074219 C 37.28125 104.824219 36.230469 106.398438 35.632812 107.519531 C 35.257812 115.015625 30.089844 121.085938 23.722656 124.460938 C 20.800781 127.082031 17.28125 129.105469 14.285156 131.65625 C 16.457031 133.003906 17.804688 134.652344 18.929688 136.976562 C 19.453125 138.25 21.925781 144.246094 18.777344 142.597656 C 15.484375 140.425781 14.058594 136.675781 11.363281 134.054688 C 8.292969 136.003906 5.820312 139.226562 6.421875 142.972656 C 8.890625 149.566406 14.507812 155.339844 21.476562 156.914062 C 23.125 155.5625 23.949219 155.039062 25.371094 154.363281 C 41.925781 144.472656 34.660156 166.730469 77.054688 148.820312 C 79 147.917969 85.144531 146.945312 86.640625 149.195312 C 87.089844 151.890625 81.699219 155.191406 79.601562 155.714844 C 79.601562 155.714844 77.128906 156.613281 73.308594 157.886719 C 72.859375 158.039062 72.410156 158.261719 71.960938 158.335938 C 72.183594 158.488281 72.410156 158.636719 72.636719 158.863281 C 87.539062 171.976562 88.664062 194.464844 99.824219 210.054688 C 101.171875 199.933594 104.84375 209.527344 105.519531 213.351562 C 105.59375 213.875 105.742188 214.925781 105.816406 215.523438 C 106.714844 222.121094 106.714844 230.363281 109.039062 236.886719 C 111.0625 245.578125 116.230469 254.273438 113.53125 263.417969 C 111.136719 268.8125 108.066406 273.761719 107.464844 279.757812 C 120.050781 277.582031 114.132812 283.804688 107.089844 287.101562 C 105.742188 289.351562 104.46875 291.148438 103.796875 293.472656 C 103.796875 293.472656 103.796875 293.472656 103.796875 293.546875 C 103.269531 293.996094 103.871094 294.296875 104.167969 294.597656 C 106.042969 293.25 107.015625 293.546875 108.8125 293.621094 C 112.859375 293.621094 117.652344 293.996094 121.621094 293.921875 C 120.421875 291.523438 121.695312 288.75 121.621094 286.128906 C 121.324219 278.558594 123.269531 273.460938 124.84375 266.566406 C 125.066406 257.496094 126.042969 246.105469 133.832031 239.734375 C 143.417969 218.898438 136.003906 220.171875 156.527344 200.234375 C 159.523438 197.460938 163.195312 192.964844 167.015625 191.539062 C 168.289062 195.0625 164.765625 200.382812 162.746094 203.15625 C 157.050781 210.351562 146.714844 217.023438 144.992188 227.140625 C 149.636719 226.765625 153.304688 226.992188 157.726562 227.367188 C 202.667969 234.1875 219.597656 214.699219 259.445312 203.90625 C 263.117188 202.933594 266.785156 202.484375 270.679688 202.484375 C 266.785156 196.710938 262.292969 188.242188 260.941406 181.722656 C 259.371094 175.574219 259.371094 168.457031 260.941406 162.234375 C 261.242188 162.085938 261.316406 161.710938 261.46875 161.484375 C 261.992188 161.1875 262.441406 161.933594 262.441406 162.609375 L 262.441406 162.460938 C 271.429688 198.136719 279.742188 203.007812 299.667969 231.714844 C 303.714844 239.808594 306.785156 249.628906 303.636719 258.695312 C 303.414062 259.296875 302.589844 262.367188 302.289062 263.042969 C 301.390625 267.464844 297.722656 272.039062 298.695312 276.535156 C 300.269531 275.933594 302.664062 275.484375 304.238281 276.234375 C 309.03125 277.132812 301.464844 282.457031 300.117188 283.804688 C 299.667969 286.128906 297.945312 288.152344 296.898438 289.726562 C 296 291 295.398438 292.5 294.5 293.847656 C 293.078125 294.371094 294.875 295.496094 295.699219 295.722656 C 297.796875 293.25 302.140625 291.898438 304.761719 291.898438 C 304.164062 292.050781 312.625 291.300781 315.171875 291.375 C 315.171875 291.375 315.324219 291.375 315.398438 291.375 C 316.523438 285.453125 314.5 279.757812 313.449219 273.6875 C 311.953125 268.589844 314.050781 263.566406 314.5 258.695312 C 311.503906 243.40625 325.433594 231.789062 321.839844 216.425781 C 318.167969 207.65625 316.445312 198.511719 318.394531 188.992188 C 321.242188 170.777344 328.132812 153.164062 329.179688 134.804688 C 329.628906 132.253906 328.65625 126.109375 328.582031 124.386719 Z M 353.226562 164.558594 C 353 150.09375 350.378906 132.78125 336.671875 125.132812 C 336.894531 126.632812 336.96875 128.28125 337.046875 129.929688 C 347.007812 136.675781 348.503906 152.792969 353 163.433594 C 353.074219 163.808594 353.226562 164.183594 353.300781 164.558594 Z M 353.226562 164.558594 " fill-opacity="1" fill-rule="nonzero"/></g></svg>