<svg xmlns="http://www.w3.org/2000/svg" xmlns:xlink="http://www.w3.org/1999/xlink" width="500" zoomAndPan="magnify" viewBox="0 0 375 374.999991" height="500" preserveAspectRatio="xMidYMid meet" version="1.0"><defs><clipPath id="8c23085489"><path d="M 0 83.515625 L 375 83.515625 L 375 291.265625 L 0 291.265625 Z M 0 83.515625 " clip-rule="nonzero"/></clipPath><clipPath id="7d4004d28c"><path d="M 101 222 L 151 222 L 151 291.265625 L 101 291.265625 Z M 101 222 " clip-rule="nonzero"/></clipPath></defs><g clip-path="url(#8c23085489)"><path fill="#ffffff" d="M 304.007812 83.945312 C 303.398438 84.066406 299.132812 84.917969 294.566406 85.953125 C 282.863281 88.453125 269.398438 90.039062 254.285156 90.769531 C 247.15625 91.074219 236.308594 91.683594 230.277344 92.046875 C 220.285156 92.597656 217.847656 92.535156 205.597656 91.316406 C 192.191406 90.039062 191.703125 90.039062 178.542969 91.011719 C 171.167969 91.5625 160.324219 92.292969 154.472656 92.597656 C 132.78125 93.9375 125.953125 96.007812 110.355469 106.246094 C 100.789062 112.460938 96.035156 117.761719 88.480469 130.804688 C 84.089844 138.359375 80.984375 142.625 75.132812 148.960938 C 51.917969 174.3125 41.742188 185.035156 39.425781 186.5 L 36.683594 188.207031 L 34.367188 187.046875 C 30.710938 185.160156 27.238281 185.464844 23.765625 187.902344 C 17.792969 192.164062 10.542969 192.898438 4.265625 189.789062 C 2.621094 188.996094 1.15625 188.449219 1.035156 188.570312 C 0.609375 188.996094 2.679688 192.289062 4.386719 193.8125 C 7.007812 196.308594 9.8125 197.46875 14.992188 198.320312 L 19.742188 199.050781 L 21.996094 196.734375 C 25.347656 193.324219 27.96875 192.226562 30.773438 193.078125 C 33.699219 193.933594 35.097656 195.515625 35.402344 198.441406 C 35.953125 202.648438 31.746094 206.851562 24.617188 209.410156 L 21.753906 210.445312 L 21.023438 217.757812 C 20.351562 224.277344 20.414062 225.800781 21.328125 230.921875 C 22.789062 238.78125 22.300781 256.453125 20.351562 265.046875 C 18.28125 274.0625 18.21875 275.953125 19.925781 278.453125 C 21.753906 281.132812 25.53125 283.328125 28.394531 283.328125 C 29.738281 283.328125 31.441406 282.71875 32.84375 281.804688 C 34.976562 280.339844 35.769531 280.460938 34.308594 282.046875 C 33.636719 282.71875 34.0625 282.777344 36.5625 282.414062 C 41.925781 281.679688 44.363281 279.730469 46.617188 274.367188 C 47.773438 271.625 48.75 270.53125 53.320312 267.179688 C 60.9375 261.511719 65.8125 256.085938 68.371094 250.480469 C 69.589844 247.921875 71.113281 244.632812 71.90625 243.109375 C 72.636719 241.585938 73.914062 238.476562 74.648438 236.160156 C 76.292969 231.105469 78.851562 228.058594 85.917969 222.816406 C 91.097656 218.917969 96.035156 216.296875 98.230469 216.296875 C 98.960938 216.296875 100.972656 217.515625 102.738281 219.039062 C 106.636719 222.390625 109.136719 223 113.15625 221.539062 C 116.082031 220.5 116.082031 220.5 118.09375 222.023438 C 122.238281 225.191406 127.050781 226.898438 131.621094 226.898438 C 136.558594 226.839844 138.140625 226.230469 148.316406 220.378906 C 152.097656 218.125 155.570312 216.234375 155.933594 216.113281 C 156.847656 215.808594 154.289062 212.03125 150.144531 207.523438 C 145.394531 202.28125 148.5625 204.351562 153.800781 209.898438 C 158.921875 215.320312 162.699219 220.929688 165.988281 227.996094 C 167.269531 230.800781 169.28125 235.125 170.5 237.625 C 171.777344 240.425781 174.03125 243.777344 176.289062 246.277344 C 179.578125 249.933594 180.25 251.152344 181.953125 256.332031 C 183.476562 261.085938 183.90625 263.703125 184.148438 269.128906 C 184.515625 275.648438 184.453125 276.074219 182.808594 279.183594 C 181.894531 280.949219 179.945312 283.9375 178.480469 285.886719 C 174.277344 291.308594 174.15625 291.246094 185.855469 291.246094 L 195.910156 291.246094 L 197.1875 289.238281 C 198.042969 287.894531 198.285156 286.738281 198.042969 285.457031 C 196.703125 278.757812 197.066406 277.414062 199.929688 278.453125 C 200.664062 278.757812 201.453125 278.816406 201.636719 278.632812 C 202.308594 277.964844 202.003906 275.28125 201.089844 273.699219 C 199.199219 270.347656 193.289062 254.320312 191.886719 248.777344 C 190.914062 244.875 190.425781 241.21875 190.425781 237.746094 C 190.425781 233.175781 189.875 230.554688 186.34375 217.578125 C 182.320312 202.707031 182.320312 202.523438 182.199219 194.054688 C 182.078125 186.621094 181.894531 184.914062 180.492188 180.769531 C 178.726562 175.589844 174.765625 167.363281 172.144531 163.585938 C 169.585938 159.808594 169.402344 159.140625 171.414062 161.453125 C 176.53125 167.242188 182.929688 178.699219 184.269531 184.609375 C 184.636719 186.132812 184.941406 190.765625 184.941406 194.96875 C 185 199.171875 185.183594 203.621094 185.429688 204.960938 L 185.855469 207.277344 L 192.558594 207.460938 C 196.273438 207.582031 201.453125 208.070312 204.136719 208.558594 C 227.292969 212.945312 237.589844 214.46875 245.265625 214.652344 C 249.835938 214.773438 249.898438 214.710938 260.5 209.65625 C 270.191406 205.023438 271.226562 204.65625 272.445312 205.390625 C 277.867188 208.800781 279.695312 209.777344 283.109375 210.996094 L 287.007812 212.398438 L 287.375 216.054688 C 287.800781 220.320312 288.167969 221.171875 289.691406 221.171875 C 290.910156 221.171875 291.882812 219.222656 292.554688 215.503906 C 292.859375 213.738281 293.222656 213.25 294.261719 213.25 C 296.332031 213.25 297.246094 214.164062 296.878906 215.808594 C 296.269531 218.125 297.488281 221.78125 298.828125 221.78125 C 300.476562 221.78125 300.65625 220.746094 300.046875 215.078125 C 298.160156 198.382812 293.710938 187.535156 287.3125 184.121094 C 285.058594 182.902344 283.960938 182.722656 280.914062 182.964844 C 278.902344 183.148438 276.710938 183.453125 276.039062 183.636719 C 275.371094 183.816406 276.039062 183.390625 277.5625 182.660156 C 280.914062 181.074219 285.789062 180.589844 288.714844 181.503906 C 291.214844 182.355469 294.625 185.828125 296.515625 189.546875 C 298.953125 194.421875 299.925781 198.746094 302 215.078125 C 304.863281 237.625 302.730469 247.496094 290.96875 265.351562 C 287.921875 269.980469 284.511719 274.125 279.878906 278.632812 C 272.933594 285.519531 269.886719 289.480469 270.554688 290.578125 C 270.800781 291.003906 274.820312 291.246094 281.828125 291.246094 C 292.371094 291.246094 292.738281 291.1875 293.652344 289.90625 C 294.199219 289.175781 294.625 287.347656 294.625 285.945312 C 294.625 283.9375 294.929688 283.203125 295.90625 282.65625 C 296.820312 282.167969 297.367188 282.167969 297.855469 282.65625 C 298.828125 283.632812 301.144531 283.449219 301.570312 282.351562 C 301.753906 281.804688 301.9375 280.28125 301.9375 278.878906 C 301.9375 275.710938 303.339844 272.722656 310.589844 260.109375 C 313.757812 254.625 317.964844 247.253906 319.914062 243.71875 C 321.863281 240.183594 325.214844 234.761719 327.347656 231.589844 C 329.480469 228.484375 331.1875 225.621094 331.1875 225.253906 C 331.1875 224.886719 330.578125 222.511719 329.847656 220.015625 C 328.75 216.359375 328.445312 213.859375 328.503906 208.070312 C 328.503906 198.992188 329.238281 196.613281 337.890625 178.515625 C 346.96875 159.566406 351.539062 147.195312 353.792969 135.554688 C 355.011719 129.339844 354.890625 116.910156 353.550781 112.644531 C 351.601562 106.125 349.285156 103.566406 339.960938 97.65625 C 337.828125 96.3125 344.167969 98.691406 346.785156 100.214844 C 350.078125 102.164062 352.269531 104.785156 354.464844 109.476562 C 358.242188 117.457031 358.609375 123.492188 358.789062 175.835938 L 358.914062 212.519531 L 355.683594 208.132812 C 351.296875 202.160156 347.761719 194.847656 346.96875 190.214844 C 346.359375 186.074219 346.785156 179.917969 348.859375 165.230469 C 349.527344 160.660156 349.957031 156.824219 349.832031 156.761719 C 349.710938 156.640625 348.980469 158.285156 348.25 160.355469 C 347.457031 162.488281 345.082031 168.15625 342.886719 173.03125 C 333.199219 194.90625 331.492188 200.574219 331.492188 211.421875 C 331.492188 220.015625 331.492188 220.015625 337.160156 228.179688 C 343.375 237.074219 346.300781 245.242188 347.640625 257.246094 C 349.042969 269.738281 347.640625 275.40625 341.242188 283.386719 C 338.742188 286.496094 336.671875 289.359375 336.671875 289.785156 C 336.671875 291.003906 338.316406 291.246094 347.945312 291.246094 C 356.902344 291.246094 357.390625 291.1875 358.609375 289.847656 C 359.765625 288.628906 359.886719 288.078125 359.523438 284.363281 C 359.035156 279.671875 359.582031 278.453125 362.324219 278.453125 C 365.066406 278.453125 365.675781 276.5625 364.214844 273.027344 C 362.019531 267.96875 358.488281 227.265625 359.644531 219.953125 L 360.132812 216.664062 L 363.117188 225.558594 C 365.921875 234.027344 366.042969 234.761719 365.796875 239.511719 C 365.554688 243.839844 365.617188 244.328125 366.347656 243.351562 C 367.445312 241.890625 368.96875 236.648438 368.96875 234.457031 C 368.96875 233.542969 369.273438 232.75 369.636719 232.75 C 370.125 232.75 370.246094 234.089844 370.003906 237.136719 C 369.636719 241.523438 369.636719 241.523438 370.550781 239.511719 C 371.953125 236.40625 372.625 228.667969 371.953125 223.914062 C 371.648438 221.597656 371.464844 219.648438 371.585938 219.527344 C 372.136719 218.976562 373.84375 226.714844 373.902344 230.066406 C 374.023438 235.917969 374.878906 231.105469 375 224.15625 C 375.0625 217.089844 373.902344 212.03125 369.699219 201.550781 C 363.847656 186.804688 363.117188 181.746094 363.847656 159.625 C 364.703125 132.328125 364.578125 116.726562 363.300781 112.097656 C 359.460938 97.65625 349.710938 87.84375 336.550781 85.039062 C 332.527344 84.1875 307.664062 83.335938 304.007812 83.945312 Z M 62.15625 191.921875 C 63.25 192.835938 63.433594 199.417969 62.398438 204.230469 C 61.484375 208.375 58.621094 211.421875 55.695312 211.359375 L 53.625 211.359375 L 55.695312 210.628906 C 58.925781 209.53125 60.265625 206.363281 60.507812 199.113281 L 60.753906 193.261719 L 58.011719 192.835938 C 54.234375 192.289062 48.871094 193.507812 46.496094 195.457031 C 44.972656 196.734375 44.726562 196.796875 45.277344 195.882812 C 46.191406 194.117188 47.835938 192.714844 50.273438 191.617188 C 52.769531 190.519531 60.632812 190.703125 62.15625 191.921875 Z M 34.183594 224.523438 C 34.734375 226.65625 34.183594 227.691406 31.6875 229.152344 C 30.527344 229.886719 29.554688 230.859375 29.554688 231.347656 C 29.554688 231.835938 29.308594 232.019531 28.945312 231.835938 C 28.214844 231.410156 28.152344 226.714844 28.824219 225.621094 C 29.308594 224.886719 32.539062 223 33.332031 223 C 33.574219 223 33.941406 223.667969 34.183594 224.523438 Z M 25.105469 278.269531 C 26.019531 278.9375 26.019531 279.0625 25.105469 279.367188 C 23.703125 279.914062 21.632812 278.632812 21.632812 277.171875 C 21.632812 276.5 22.121094 275.101562 22.730469 274.003906 L 23.765625 272.054688 L 23.949219 274.796875 C 24.070312 276.441406 24.496094 277.84375 25.105469 278.269531 Z M 25.105469 278.269531 " fill-opacity="1" fill-rule="nonzero"/></g><path fill="#ffffff" d="M 23.765625 198.6875 C 18.28125 203.257812 12.734375 205.816406 5.789062 206.789062 L 0 207.582031 L 2.984375 208.984375 C 7.191406 210.875 14.136719 211.300781 19.742188 209.898438 C 24.496094 208.742188 30.347656 205.570312 32.417969 203.011719 C 35.222656 199.660156 33.636719 195.578125 29.492188 195.578125 C 27.847656 195.578125 26.566406 196.25 23.765625 198.6875 Z M 23.765625 198.6875 " fill-opacity="1" fill-rule="nonzero"/><g clip-path="url(#7d4004d28c)"><path fill="#ffffff" d="M 147.464844 223.730469 C 146.488281 224.402344 143.871094 225.800781 141.675781 226.839844 C 138.203125 228.484375 137.046875 228.726562 132.351562 228.726562 L 126.992188 228.789062 L 126.257812 231.226562 C 125.832031 232.6875 125.527344 237.625 125.527344 243.71875 C 125.527344 252.738281 125.34375 254.199219 124.066406 257.734375 C 120.773438 266.691406 115.109375 276.074219 111.390625 278.632812 C 108.160156 280.890625 101.277344 289.238281 101.703125 290.332031 C 101.945312 291.066406 103.714844 291.246094 111.816406 291.246094 C 121.382812 291.246094 121.628906 291.1875 123.089844 289.722656 C 124.1875 288.6875 124.613281 287.589844 124.613281 285.886719 C 124.613281 282.777344 125.832031 281.621094 128.085938 282.65625 C 130.34375 283.691406 130.769531 282.960938 131.316406 277.414062 C 132.230469 268.640625 136.375 254.867188 140.09375 248.410156 C 144.175781 241.464844 146.488281 236.039062 148.378906 229.398438 C 149.355469 225.742188 150.207031 222.695312 150.207031 222.574219 C 150.207031 222.148438 149.171875 222.574219 147.464844 223.730469 Z M 147.464844 223.730469 " fill-opacity="1" fill-rule="nonzero"/></g></svg>